<svg class="canvas" viewBox="0 0 1920 1080" preserveAspectRatio="xMaxYMid slice" xmlns="http://www.w3.org/2000/svg" version="1.1" xmlns:xlink="http://www.w3.org/1999/xlink" xmlns:svgjs="http://svgjs.dev/svgjs"><rect width="1920" height="1080" fill="hsl(209, 65%, 15%)"></rect><defs><linearGradient x1="0.5" y1="0" x2="0" y2="1" id="SvgjsLinearGradient1000"><stop stop-color="#28828a" offset="0"></stop><stop stop-color="#070614" offset="0.1"></stop></linearGradient><linearGradient x1="0.5" y1="0" x2="0" y2="1" id="SvgjsLinearGradient1001"><stop stop-color="#28478a" offset="0"></stop><stop stop-color="#0f0614" offset="0.22857142857142856"></stop></linearGradient><linearGradient x1="0.5" y1="0" x2="0" y2="1" id="SvgjsLinearGradient1002"><stop stop-color="#28828a" offset="0"></stop><stop stop-color="#070614" offset="0.3571428571428571"></stop></linearGradient><linearGradient x1="0.5" y1="0" x2="0" y2="1" id="SvgjsLinearGradient1003"><stop stop-color="#c0edf2" offset="0"></stop><stop stop-color="#4e42d7" offset="0.48571428571428565"></stop></linearGradient><linearGradient x1="0.5" y1="0" x2="0" y2="1" id="SvgjsLinearGradient1004"><stop stop-color="#c0e4f2" offset="0"></stop><stop stop-color="#6c42d7" offset="0.6142857142857142"></stop></linearGradient><linearGradient x1="0.5" y1="0" x2="0" y2="1" id="SvgjsLinearGradient1005"><stop stop-color="#c0daf2" offset="0"></stop><stop stop-color="#8a42d7" offset="0.7428571428571429"></stop></linearGradient><linearGradient x1="0.5" y1="0" x2="0" y2="1" id="SvgjsLinearGradient1006"><stop stop-color="#c0c6f2" offset="0"></stop><stop stop-color="#c542d7" offset="0.8714285714285713"></stop></linearGradient></defs><path d="M0,-584.0305445875149C76.71964534821491,-566.396015069405,297.98228488643144,-524.7130144703098,460.3178720892895,-478.2233674788558C622.6534592921475,-431.73372048740174,814.3522481237253,-353.84663004538123,974.0135232171484,-305.0926626387907C1133.6747983105715,-256.3386952322002,1260.6211098526862,-229.20991604785868,1418.2855226498282,-185.69956303931272C1575.9499354469701,-142.18921003076676,1836.380920441638,-67.64204766281453,1920,-44.030544587514896L 1920 1080 L 0 1080 Z" fill="url(&quot;#SvgjsLinearGradient1000&quot;)"></path><path d="M0,-440.2043171789751C76.59811915169468,-412.0451423253146,302.4255088895436,-319.6670974952928,459.58871491016805,-271.2492680570122C616.7519209307925,-222.83143861873165,775.328479656067,-196.26493610018795,942.9792361237468,-149.69734054929162C1110.6299925914266,-103.1297449983953,1302.656459736871,-35.806817694306076,1465.4932537162465,8.156305248365719C1628.330047695622,52.119428191037514,1844.2488756193743,96.42721513034361,1920,114.08139710673919L 1920 1080 L 0 1080 Z" fill="url(&quot;#SvgjsLinearGradient1001&quot;)"></path><path d="M0,-286.2741410069841C46.717004726309646,-273.7380390342137,204.11597574200906,-232.4031407995361,280.30202835785786,-211.05752917036185C356.4880809737067,-189.7119175411876,377.67765875954154,-186.1890327658049,457.11631569509285,-158.2004712319386C536.5549726306442,-130.21190969807228,674.0645959702135,-75.5417499696816,756.9339699711658,-43.126159967163886C839.803343972118,-10.710569964646162,884.3735888227493,14.54427274410898,954.3325597008062,36.29306878316777C1024.291530578863,58.04186482222656,1100.841203010022,76.77772042136671,1176.6877952395075,87.36661626718886C1252.5343874689931,97.95551211301101,1331.243251053776,79.58923413544278,1409.4121130777198,99.82644385810065C1487.5809751016636,120.06365358075851,1560.6029862294572,178.3780673187454,1645.7009673831706,208.78987460313604C1730.798948536884,239.2016818875267,1874.2834945638617,270.0460520708931,1920,282.2972875644445L 1920 1080 L 0 1080 Z" fill="url(&quot;#SvgjsLinearGradient1002&quot;)"></path><path d="M0,-201.32940241816652C43.63217751695757,-183.4503688302309,169.9682207572862,-120.36274353205908,261.7930651017454,-94.05520089055271C353.61790944620464,-67.74765824904634,458.85003256241947,-66.75010018496914,550.9490660667552,-43.484146569128285C643.048099571091,-20.218192953287424,715.4253321477614,13.668421809113003,814.3872661277601,45.54052080449245C913.3492001077587,77.4126197998719,1045.2501657264093,117.9472152890473,1144.7206699467472,147.74844740314842C1244.1911741670851,177.54967951724953,1331.8313055235967,193.24638398839224,1411.210291449788,224.34791348909914C1490.5892773759792,255.44944298980604,1536.1963007455256,308.16098658241026,1620.9945855038943,334.3576244073898C1705.792870262263,360.5542622323693,1870.165764250649,373.6660544337119,1920,381.52774043897637L 1920 1080 L 0 1080 Z" fill="url(&quot;#SvgjsLinearGradient1003&quot;)"></path><path d="M0,-34.677370748163575C86.80767177574442,-7.590931733887242,359.86405119542815,71.21261338165019,520.8460306544665,127.84126333749442C681.8280101135049,184.46991329333866,806.6831620339658,255.92332580114854,965.8918767542301,305.0945289869018C1125.1005914744944,354.2657321726551,1317.080298435091,379.97332288404874,1476.0983189760527,422.86848245201406C1635.1163395170145,465.7636420199794,1846.0163864960089,539.1993190709138,1920,562.4654863946937L 1920 1080 L 0 1080 Z" fill="url(&quot;#SvgjsLinearGradient1004&quot;)"></path><path d="M0,106.39783747979953C51.06485828908342,123.83901323404496,192.20396946347375,183.77341838930928,306.3891497345005,211.04489200527203C420.57433000552726,238.31636562123478,582.3967638370958,228.32278166653882,685.1110816261604,270.026679175576C787.825399415225,311.73057668461325,816.7924543698266,426.62589524151326,922.675056468888,461.2682770594953C1028.5576585679494,495.9106588774773,1210.012300656968,456.19167783067843,1320.406694220529,477.88097008346836C1430.8010877840902,499.5702623362583,1485.1092002203434,551.4131241054178,1585.0414178502551,591.4040305762348C1684.9736354801669,631.3949370470519,1864.1735696417093,696.7560125196816,1920,717.8264089083709L 1920 1080 L 0 1080 Z" fill="url(&quot;#SvgjsLinearGradient1005&quot;)"></path><path d="M0,207.70802510948735C83.23301388756087,231.13297497294826,335.4744594976547,294.38573071890374,499.39808332536523,348.2577242902528C663.3217071530757,402.1297178616018,824.1273602751604,470.8441324341704,983.5417429662632,530.9399865375816C1142.956125657366,591.0358406409928,1299.8080032996925,658.4191281963548,1455.884379471982,708.83284891072C1611.9607556442713,759.2465696250853,1842.6473965786636,812.6574005049309,1920,833.4223108237732L 1920 1080 L 0 1080 Z" fill="url(&quot;#SvgjsLinearGradient1006&quot;)"></path></svg>