<svg class="canvas" viewBox="0 0 1920 1080" preserveAspectRatio="xMaxYMid slice" xmlns="http://www.w3.org/2000/svg" version="1.1" xmlns:xlink="http://www.w3.org/1999/xlink" xmlns:svgjs="http://svgjs.dev/svgjs"><rect width="1920" height="1080" fill="hsl(268, 65%, 15%)"></rect><defs><linearGradient x1="0.5" y1="0" x2="0" y2="1" id="SvgjsLinearGradient1126"><stop stop-color="#28498a" offset="0"></stop><stop stop-color="#0f0614" offset="0.1"></stop></linearGradient><linearGradient x1="0.5" y1="0" x2="0" y2="1" id="SvgjsLinearGradient1127"><stop stop-color="#2f288a" offset="0"></stop><stop stop-color="#140613" offset="0.22857142857142856"></stop></linearGradient><linearGradient x1="0.5" y1="0" x2="0" y2="1" id="SvgjsLinearGradient1128"><stop stop-color="#2f288a" offset="0"></stop><stop stop-color="#140613" offset="0.3571428571428571"></stop></linearGradient><linearGradient x1="0.5" y1="0" x2="0" y2="1" id="SvgjsLinearGradient1129"><stop stop-color="#d7c0f2" offset="0"></stop><stop stop-color="#d74291" offset="0.48571428571428565"></stop></linearGradient><linearGradient x1="0.5" y1="0" x2="0" y2="1" id="SvgjsLinearGradient1130"><stop stop-color="#c3c0f2" offset="0"></stop><stop stop-color="#d742cd" offset="0.6142857142857142"></stop></linearGradient><linearGradient x1="0.5" y1="0" x2="0" y2="1" id="SvgjsLinearGradient1131"><stop stop-color="#d7c0f2" offset="0"></stop><stop stop-color="#d74291" offset="0.7428571428571429"></stop></linearGradient><linearGradient x1="0.5" y1="0" x2="0" y2="1" id="SvgjsLinearGradient1132"><stop stop-color="#c0d0f2" offset="0"></stop><stop stop-color="#a542d7" offset="0.8714285714285713"></stop></linearGradient></defs><path d="M0,-557.7103155503451C83.41146912116274,-529.3247136296626,336.14848137091917,-434.30937732247395,500.46881472697646,-387.3967040262505C664.7891480830338,-340.4840307300271,827.0803414530565,-320.4010663939759,985.9220001363435,-276.23427577300436C1144.7636588196306,-232.06748515203284,1297.839100182756,-165.48328700419796,1453.5187668266988,-122.3959603004214C1609.1984334706415,-79.30863359664482,1842.2531278044498,-35.15792300869108,1920,-17.710315550345015L 1920 1080 L 0 1080 Z" fill="url(&quot;#SvgjsLinearGradient1126&quot;)"></path><path d="M0,-421.97619524379223C57.67631912099254,-408.0315293712523,240.63943960917186,-363.7549925918956,346.05791472595524,-338.3082000085527C451.4763898427386,-312.86140742520985,529.7527935514281,-300.16006119051696,632.5108507007004,-269.2954397437351C735.2689078499727,-238.4308182969532,859.4443611326385,-187.63269836441944,962.6062576215893,-153.12047132786142C1065.76815411054,-118.60824429130341,1144.6480958414827,-90.8441439674189,1251.4822296344053,-62.222077524387004C1358.3163634273278,-33.600011081355106,1492.1914319848595,-13.81000543072156,1603.6110603791253,18.611927330329948C1715.0306887733911,51.033860091381456,1867.2685100631875,113.35992042332336,1920,132.30951904192204L 1920 1080 L 0 1080 Z" fill="url(&quot;#SvgjsLinearGradient1127&quot;)"></path><path d="M0,-285.7517608216378C41.88149596908833,-266.5906539310859,163.12566573112744,-197.52001058804282,251.28897581452995,-170.78511947832644C339.4522858979325,-144.05022836861005,435.10994381594725,-149.32524674308752,528.979860500415,-125.34241416333944C622.8497771848829,-101.35958158359135,721.0994800702825,-50.902654959392585,814.5084759213368,-26.888123999837894C907.917471772391,-2.873593040283204,1001.9669462765538,-6.869780360944091,1089.43383560674,18.744771593988716C1176.9007249369265,44.35932354892152,1243.6465392293264,96.68858974658063,1339.3098119024546,126.79918772975896C1434.9730845755828,156.9097857129373,1566.6317736292513,173.40494615638673,1663.4134716455087,199.4083594930587C1760.1951696617662,225.41177282973067,1877.2355786075848,268.91778304033545,1920,282.8196677497908L 1920 1080 L 0 1080 Z" fill="url(&quot;#SvgjsLinearGradient1128&quot;)"></path><path d="M0,-183.78312903499165C64.49761065977012,-159.60136970417102,265.26052184484723,-78.40494804145928,386.9856639586207,-38.69257305006794C508.7108060723942,1.0198019413233936,607.5529647048215,22.363965300871072,730.3508526826408,54.49112091335638C853.1487406604601,86.6182765258417,989.9017245723993,112.7600181044618,1123.7729918255368,154.07036062484391C1257.6442590786742,195.38070314522602,1400.873954839055,261.5192338360977,1533.5784562014655,302.35317603564897C1666.2829575638762,343.1871182352002,1855.5964093669108,382.95387419106754,1920,399.07401382215124L 1920 1080 L 0 1080 Z" fill="url(&quot;#SvgjsLinearGradient1129&quot;)"></path><path d="M0,-39.403128691096455C59.999369711698826,-14.64925075179556,251.18859732330174,70.39444047999095,359.99621827019297,109.12013894470891C468.8038392170842,147.84583740942688,550.1511453807703,174.23762600625722,652.8457256813475,192.95106209721135C755.5403059819247,211.66449818816548,863.444148095045,192.6495189096625,976.1637000736562,221.40075549043374C1088.8832520522674,250.15199207120497,1228.5858248890472,331.95533231873395,1329.1630375530146,365.4584815818387C1429.740250216982,398.9616308449435,1481.1541489829624,390.372776590742,1579.62697605746,422.4196510690623C1678.0998031319577,454.4665255473826,1863.2711626762434,535.1863822213111,1920,557.7397284517608L 1920 1080 L 0 1080 Z" fill="url(&quot;#SvgjsLinearGradient1130&quot;)"></path><path d="M0,111.37298897946005C44.24578870358774,122.2498761565233,171.38769540258915,144.82989278865955,265.47473222152644,176.63431204183956C359.56176904046373,208.43873129501958,467.21376584715745,274.37470310424084,564.5222209136238,302.19950449854014C661.8306759800901,330.02430589283944,759.9911161842429,318.79191653185546,849.3254626203243,343.58312040763525C938.6598090564057,368.37432428341504,1018.1951901415956,420.6867724858989,1100.5282995301127,450.94672775321885C1182.8614089186299,481.2066830205388,1248.222985645549,492.0835401094602,1343.324118951427,525.1428520115547C1438.425252257305,558.2021639136492,1575.022452523952,616.3594810997064,1671.135099365381,649.3025991657859C1767.2477462068098,682.2457172318653,1878.5225165608967,710.5517335343238,1920,722.8015604080315L 1920 1080 L 0 1080 Z" fill="url(&quot;#SvgjsLinearGradient1131&quot;)"></path><path d="M0,236.08017628331876C56.45105306672661,244.37612663495463,227.75272579855846,243.697619634886,338.70631840035963,285.8558783931339C449.6599110021608,328.01413715138176,564.0898005788,441.82337997553685,665.7215556108071,489.0297288328061C767.3533106428141,536.2360776900754,849.184589398648,535.1992132380491,948.4968485924019,569.0939715367493C1047.8091077861557,602.9887298354496,1159.5875279302945,652.5918011863802,1261.5951107733304,692.3982786250074C1363.6026936163662,732.2047560636346,1450.8081974461713,779.7001389397465,1560.5423456506162,807.9328361685127C1670.276493855061,836.165533397279,1860.0903909417693,852.8175243594226,1920,861.7944619976046L 1920 1080 L 0 1080 Z" fill="url(&quot;#SvgjsLinearGradient1132&quot;)"></path></svg>
