<svg class="canvas" viewBox="0 0 1920 1080" preserveAspectRatio="xMaxYMid slice" xmlns="http://www.w3.org/2000/svg" version="1.1" xmlns:xlink="http://www.w3.org/1999/xlink" xmlns:svgjs="http://svgjs.dev/svgjs"><rect width="1920" height="1080" fill="hsl(129, 65%, 15%)"></rect><defs><linearGradient x1="0.5" y1="0" x2="0" y2="1" id="SvgjsLinearGradient1007"><stop stop-color="#688a28" offset="0"></stop><stop stop-color="#06140b" offset="0.1"></stop></linearGradient><linearGradient x1="0.5" y1="0" x2="0" y2="1" id="SvgjsLinearGradient1008"><stop stop-color="#688a28" offset="0"></stop><stop stop-color="#06140b" offset="0.22857142857142856"></stop></linearGradient><linearGradient x1="0.5" y1="0" x2="0" y2="1" id="SvgjsLinearGradient1009"><stop stop-color="#418a28" offset="0"></stop><stop stop-color="#061410" offset="0.3571428571428571"></stop></linearGradient><linearGradient x1="0.5" y1="0" x2="0" y2="1" id="SvgjsLinearGradient1010"><stop stop-color="#ccf2c0" offset="0"></stop><stop stop-color="#42d7b2" offset="0.48571428571428565"></stop></linearGradient><linearGradient x1="0.5" y1="0" x2="0" y2="1" id="SvgjsLinearGradient1011"><stop stop-color="#ccf2c0" offset="0"></stop><stop stop-color="#42d7b2" offset="0.6142857142857142"></stop></linearGradient><linearGradient x1="0.5" y1="0" x2="0" y2="1" id="SvgjsLinearGradient1012"><stop stop-color="#e0f2c0" offset="0"></stop><stop stop-color="#42d776" offset="0.7428571428571429"></stop></linearGradient><linearGradient x1="0.5" y1="0" x2="0" y2="1" id="SvgjsLinearGradient1013"><stop stop-color="#e0f2c0" offset="0"></stop><stop stop-color="#42d776" offset="0.8714285714285713"></stop></linearGradient></defs><path d="M0,-567.416699456152C42.62747267551077,-549.3822846764978,162.24492256670732,-488.43839691265674,255.76483605306458,-459.21021077822684C349.28474953942185,-429.98202464379693,466.5723029583964,-412.91479498498927,561.1194809181436,-392.04758264957263C655.6666588778908,-371.180370314156,740.313750599045,-348.050209030159,823.0479038115478,-334.0069367657271C905.7820570240507,-319.9636645012952,971.1550320736774,-331.02008786016745,1057.524400193161,-307.7879490629814C1143.8937683126446,-284.55581026579534,1251.301537473113,-236.1388589480529,1341.26411252845,-194.61410398261094C1431.2266875837868,-153.08934901716898,1500.8438692799243,-86.50565335807279,1597.2998505251826,-58.63941927032962C1693.7558317704409,-30.77318518258645,1866.216641754197,-32.62048609184821,1920,-27.416699456151928L 1920 1080 L 0 1080 Z" fill="url(&quot;#SvgjsLinearGradient1007&quot;)"></path><path d="M0,-366.5862803833924C60.36675912222196,-345.0988464506837,255.60313444712278,-273.44428440313527,362.2005547333317,-237.6616767871402C468.7979750195407,-201.87906917114515,540.0591860735943,-176.1362241718568,639.5845217172537,-151.89063468742205C739.109857360913,-127.6450452029873,856.6911301041497,-123.63616910996627,959.3525685952876,-92.18813988053171C1062.0140070864254,-60.74011065109714,1145.2971280357008,3.491548810693729,1255.5531526640812,36.79754068918539C1365.8091772924615,70.10353256767705,1510.147575142917,82.49749585489549,1620.8887163655702,107.64781139041824C1731.6298575882233,132.79812692594098,1870.1481193942618,174.35749681700457,1920,187.69943390232186L 1920 1080 L 0 1080 Z" fill="url(&quot;#SvgjsLinearGradient1008&quot;)"></path><path d="M0,-268.98504716960764C51.935870055367026,-264.4618748006911,229.7725351901255,-278.88420229616025,311.61522033220217,-241.84601295610827C393.45790547427885,-204.80782361605625,407.9393534740305,-91.61093082861399,491.05611085246,-46.75591112929561C574.1728682308895,-1.9008914299772428,702.4180074225329,14.05910829112115,810.3157646027793,27.284105239801903C918.2135217830256,40.50910218848266,1046.7689807610557,15.17394577701037,1138.4426539339381,32.5940705627889C1230.1163271068206,50.014195348567426,1273.8192338322417,110.68923090918855,1360.3578036400743,131.8048539544731C1446.8963734479069,152.92047699975762,1564.400373387613,131.32422092660485,1657.6740727809338,159.28780883449616C1750.9477721742546,187.25139674238747,1876.2790121301557,276.2032859739335,1920,299.586381401821L 1920 1080 L 0 1080 Z" fill="url(&quot;#SvgjsLinearGradient1009&quot;)"></path><path d="M0,-124.8954707686896C46.86388736647387,-109.19593755985426,177.69667711857574,-62.556416823851976,281.1833241988432,-30.69827151567751C384.66997127911065,1.159873792496949,501.31896954848077,39.75368874088859,620.9198824816049,66.25340108035715C740.5207954147289,92.75311341982571,893.153062674766,93.92409977057207,998.7888017975878,128.30000252113388C1104.4245409204095,162.67590527169568,1154.3275327884826,229.26860883899883,1254.7343172185356,272.50881758372805C1355.1411016485886,315.74902632845726,1490.3518945809951,356.83244590538834,1601.2295083779059,387.74125498950923C1712.1071221748166,418.6500640736301,1866.871584729651,446.2582692386293,1920,457.96167208845327L 1920 1080 L 0 1080 Z" fill="url(&quot;#SvgjsLinearGradient1010&quot;)"></path><path d="M0,-55.02969296176856C39.3284494027229,-47.22069382153262,143.0782492924821,-35.01028804720578,235.97069641633743,-8.175698120352926C328.86314354019277,18.65889180649993,456.8856607302079,74.44100527827544,557.354682743132,105.9778465993486C657.823704756056,137.51468792042175,743.5190178214962,147.062815399436,838.7848284938818,181.045349806086C934.0506391662675,215.02788421273598,1034.6883566543925,282.77382502497306,1128.949546777446,309.8730530392486C1223.2107369004993,336.9722810535241,1316.068498409028,321.64070559668966,1404.3519692322031,343.64071789173926C1492.6354400553782,365.64073018678886,1572.7090332551975,408.7943857613214,1658.650371716497,441.8731268095463C1744.5917101777964,474.9518678577712,1876.4417286194162,525.4064912858316,1920,542.1131641810887L 1920 1080 L 0 1080 Z" fill="url(&quot;#SvgjsLinearGradient1011&quot;)"></path><path d="M0,149.1273706589683C35.312430194139274,155.55911644344178,135.08172639344315,161.19162067784868,211.87458116483563,187.7178453658093C288.6674359362281,214.24407005376992,381.32276502148636,276.2367127052458,460.75712862835496,308.28471878673207C540.1914922352236,340.33272486821835,598.859780587253,354.41050523802767,688.4807628060473,380.0058818547271C778.1017450248416,405.6012584714265,911.5815047970748,441.90416514358583,998.4830219411209,461.8569784869286C1085.384539085167,481.80979183027137,1130.1207042567812,474.0120952967444,1209.889865670324,499.7227619147836C1289.659027083867,525.4334285328227,1396.065866235107,585.7316710983364,1477.0979904223777,616.1209781951635C1558.1301146096484,646.5102852919906,1622.2656091976785,657.9861105136833,1696.0826107939488,682.0586044957461C1769.899612390219,706.1310984778088,1882.6804351323249,747.4730524889075,1920,760.5559420875397L 1920 1080 L 0 1080 Z" fill="url(&quot;#SvgjsLinearGradient1012&quot;)"></path><path d="M0,202.913815658607C65.4802916578449,227.0689098709741,265.39421484613337,300.07642508711893,392.8817499470694,347.8443809328096C520.3692850480054,395.61233677850026,644.9704411857928,452.96815356037854,764.9252106056161,489.52155073275105C884.8799800254395,526.0749479051235,979.3645766934774,525.9593442274654,1112.61036646601,567.1647639670446C1245.8561562385426,608.3701837066237,1429.8350103184803,693.1768462692511,1564.399949240812,736.7540691702258C1698.9648881631438,780.3312920712004,1860.7333248734687,813.3157626724483,1920,828.6281013728928L 1920 1080 L 0 1080 Z" fill="url(&quot;#SvgjsLinearGradient1013&quot;)"></path></svg>