<svg class="canvas" viewBox="0 0 1920 1080" preserveAspectRatio="xMaxYMid slice" xmlns="http://www.w3.org/2000/svg" version="1.1" xmlns:xlink="http://www.w3.org/1999/xlink" xmlns:svgjs="http://svgjs.dev/svgjs"><rect width="1920" height="1080" fill="hsl(189, 65%, 15%)"></rect><defs><linearGradient x1="0.5" y1="0" x2="0" y2="1" id="SvgjsLinearGradient1056"><stop stop-color="#288a85" offset="0"></stop><stop stop-color="#060614" offset="0.1"></stop></linearGradient><linearGradient x1="0.5" y1="0" x2="0" y2="1" id="SvgjsLinearGradient1057"><stop stop-color="#287c8a" offset="0"></stop><stop stop-color="#080614" offset="0.22857142857142856"></stop></linearGradient><linearGradient x1="0.5" y1="0" x2="0" y2="1" id="SvgjsLinearGradient1058"><stop stop-color="#288a85" offset="0"></stop><stop stop-color="#060614" offset="0.3571428571428571"></stop></linearGradient><linearGradient x1="0.5" y1="0" x2="0" y2="1" id="SvgjsLinearGradient1059"><stop stop-color="#c0f2e5" offset="0"></stop><stop stop-color="#4267d7" offset="0.48571428571428565"></stop></linearGradient><linearGradient x1="0.5" y1="0" x2="0" y2="1" id="SvgjsLinearGradient1060"><stop stop-color="#c0f2db" offset="0"></stop><stop stop-color="#4285d7" offset="0.6142857142857142"></stop></linearGradient><linearGradient x1="0.5" y1="0" x2="0" y2="1" id="SvgjsLinearGradient1061"><stop stop-color="#c0f2ef" offset="0"></stop><stop stop-color="#4249d7" offset="0.7428571428571429"></stop></linearGradient><linearGradient x1="0.5" y1="0" x2="0" y2="1" id="SvgjsLinearGradient1062"><stop stop-color="#c0f2ef" offset="0"></stop><stop stop-color="#4249d7" offset="0.8714285714285713"></stop></linearGradient></defs><path d="M0,-537.83076945053C87.61097634681511,-508.64617305294087,357.9226441882267,-402.8675162949688,525.6658580808906,-362.72319106499504C693.4090719735545,-322.57886583502125,859.2184273376193,-341.4029179747307,1006.4592833559838,-296.9648180706873C1153.700139374348,-252.52671816664383,1256.854208083741,-145.95026641076066,1409.110994191077,-96.09459164073445C1561.367780298413,-46.23891687070824,1834.8518323651795,-14.208073148897423,1920,2.1692305494699795L 1920 1080 L 0 1080 Z" fill="url(&quot;#SvgjsLinearGradient1056&quot;)"></path><path d="M0,-455.2232449196518C53.43999634434211,-436.6687440374286,219.3416438481617,-371.6016847604825,320.63997806605266,-343.8962396263129C421.9383122839436,-316.19079449214325,502.6916053452108,-316.6764825648641,607.7900053073456,-288.9905741146342C712.8884052694805,-261.30466566440435,834.1997892462118,-206.2466451327076,951.2303778388616,-177.78078892493352C1068.2609664315114,-149.31493271715942,1204.6865032054163,-154.70079406855774,1309.9735368632444,-118.19543686798963C1415.2605705210724,-81.69007966742151,1481.28150259637,5.041703239466521,1582.9525797858294,41.25135427847522C1684.6236569752887,77.46100531748391,1863.825429964305,89.42728351813132,1920,99.06246936606254L 1920 1080 L 0 1080 Z" fill="url(&quot;#SvgjsLinearGradient1057&quot;)"></path><path d="M0,-257.04508339830954C52.646424307461594,-237.04510592504704,221.5468829926678,-156.91037465242061,315.8785458447696,-137.04521855873446C410.21020869687135,-117.18006246504831,483.092804755996,-153.3535158387548,565.9899771126105,-137.8541468361926C648.887149469225,-122.3547778336304,731.5869315747609,-83.95321578915645,813.2615799844568,-44.049004543361235C894.9362283941527,-4.144793297566025,960.2581512576876,71.4730004991424,1056.037867570786,101.57112063857866C1151.8175838838843,131.66924077801494,1284.8385782604182,122.3330758725091,1387.939877863047,136.53971629325636C1491.041177465676,150.7463567140036,1585.968978163733,157.64652501641842,1674.6456651865585,186.8109631630622C1763.322352209384,215.975401309706,1879.1076108644265,290.7404481714429,1920,311.526345173119L 1920 1080 L 0 1080 Z" fill="url(&quot;#SvgjsLinearGradient1058&quot;)"></path><path d="M0,-132.26324732415398C57.908324062626434,-111.5812162630407,242.47440253726717,-38.2705268570509,347.4499443757586,-8.171060957474289C452.42548621425004,21.928404942102325,531.2588628060952,14.430545299858132,629.8532510309485,48.33354807330572C728.4476392558018,82.23655084675332,832.7222266894955,161.22270119073042,939.0162737248787,195.24695568321124C1045.310320760262,229.27121017569206,1151.1649268305403,226.28342126285108,1267.6175332432474,252.47907502819058C1384.0701396559546,278.67472879353005,1529.0015010749958,319.4017415244485,1637.731912201121,352.4208782752482C1746.4623233272464,385.4400150260479,1872.9553187001868,434.2317259900321,1920,450.5938955329889L 1920 1080 L 0 1080 Z" fill="url(&quot;#SvgjsLinearGradient1059&quot;)"></path><path d="M0,4.317387052975334C43.60754097411428,22.727837625315132,183.089067403307,85.50915486778399,261.6452458446857,114.78009048701412C340.20142428606437,144.05102610624425,392.1829992009122,152.98232473103408,471.337070648272,179.9430007683561C550.4911420956319,206.9036768056781,653.2688011446477,262.8002043835772,736.5696745288445,276.5441467109461C819.8705479130414,290.28808903831504,889.3984559862373,249.1780560303195,971.1423109534531,262.40665473256973C1052.886165920669,275.63525343481996,1152.8190602658105,327.3035420987501,1227.0328043321397,355.9157389244474C1301.2465483984688,384.5279357501447,1331.208853435021,405.1403893476315,1416.4247753514276,434.0798356867537C1501.6406972678342,463.0192820258759,1654.399131722484,501.6556822076675,1738.3283358305794,529.5524169591806C1822.2575399386747,557.4491517106937,1889.7213893050966,589.4756063230571,1920,601.4602441958325L 1920 1080 L 0 1080 Z" fill="url(&quot;#SvgjsLinearGradient1060&quot;)"></path><path d="M0,134.69091894227336C66.67715216780068,161.89514001946486,276.56896987987676,254.25973449784573,400.0629130068041,297.9162454054224C523.5568561337313,341.57275631299905,611.5650834769964,365.240982565473,740.9636587615638,396.62998438773326C870.3622340461312,428.0189862099935,1046.0260606749016,450.33069345692684,1176.4543647142086,486.25025633898366C1306.8826687535156,522.1698192210405,1399.609210449774,568.835822674764,1523.533482997406,612.1473616800743C1647.457755545038,655.4589006853845,1853.9222471662342,723.7908022557164,1920,746.1194903708448L 1920 1080 L 0 1080 Z" fill="url(&quot;#SvgjsLinearGradient1061&quot;)"></path><path d="M0,220.6490642658071C78.2407290846444,252.46551703443936,310.31978913404697,360.3125465905725,469.44437450786637,411.54778087760053C628.5689598816857,462.7830151646286,783.3754908007162,482.3435362235108,954.7475122429164,528.0604699879754C1126.1195336851165,573.7774037524399,1336.8010885348867,632.7989034657015,1497.6765031610673,685.8493834643878C1658.551917787248,738.899863463074,1849.6127505268446,819.6110222274754,1920,846.3633499800928L 1920 1080 L 0 1080 Z" fill="url(&quot;#SvgjsLinearGradient1062&quot;)"></path></svg>