<svg class="canvas" viewBox="0 0 1920 1080" preserveAspectRatio="xMaxYMid slice" xmlns="http://www.w3.org/2000/svg" version="1.1" xmlns:xlink="http://www.w3.org/1999/xlink" xmlns:svgjs="http://svgjs.dev/svgjs"><rect width="1920" height="1080" fill="hsl(19, 65%, 15%)"></rect><defs><linearGradient x1="0.5" y1="0" x2="0" y2="1" id="SvgjsLinearGradient1021"><stop stop-color="#8a5b28" offset="0"></stop><stop stop-color="#0d1406" offset="0.1"></stop></linearGradient><linearGradient x1="0.5" y1="0" x2="0" y2="1" id="SvgjsLinearGradient1022"><stop stop-color="#8a5b28" offset="0"></stop><stop stop-color="#0d1406" offset="0.22857142857142856"></stop></linearGradient><linearGradient x1="0.5" y1="0" x2="0" y2="1" id="SvgjsLinearGradient1023"><stop stop-color="#8a2830" offset="0"></stop><stop stop-color="#141306" offset="0.3571428571428571"></stop></linearGradient><linearGradient x1="0.5" y1="0" x2="0" y2="1" id="SvgjsLinearGradient1024"><stop stop-color="#f2d0c0" offset="0"></stop><stop stop-color="#a8d742" offset="0.48571428571428565"></stop></linearGradient><linearGradient x1="0.5" y1="0" x2="0" y2="1" id="SvgjsLinearGradient1025"><stop stop-color="#f2c0ce" offset="0"></stop><stop stop-color="#d7ad42" offset="0.6142857142857142"></stop></linearGradient><linearGradient x1="0.5" y1="0" x2="0" y2="1" id="SvgjsLinearGradient1026"><stop stop-color="#f2dac0" offset="0"></stop><stop stop-color="#8ad742" offset="0.7428571428571429"></stop></linearGradient><linearGradient x1="0.5" y1="0" x2="0" y2="1" id="SvgjsLinearGradient1027"><stop stop-color="#f2dac0" offset="0"></stop><stop stop-color="#8ad742" offset="0.8714285714285713"></stop></linearGradient></defs><path d="M0,-503.8456537185468C64.57067651511589,-486.2818922491411,261.87069562712963,-433.9171535176075,387.4240590906953,-398.46308490211237C512.977422554261,-363.0090162866172,625.8938278703688,-322.52771213919965,753.320180781394,-291.12124202557607C880.7465336924192,-259.7147719119525,1020.8221536343119,-248.11274276803184,1151.9821765568463,-210.02426422037087C1283.1421994793807,-171.9357856727099,1412.2773477427418,-103.6201391565809,1540.2803183166006,-62.59037073961022C1668.2832888904595,-21.560602322639546,1856.7133863861002,19.696893444609263,1920,36.15434628145316L 1920 1080 L 0 1080 Z" fill="url(&quot;#SvgjsLinearGradient1021&quot;)"></path><path d="M0,-383.1833619928159C47.617220948706915,-362.10023040717095,186.41122868357195,-282.82426715039384,285.7033256922415,-256.6845724789462C384.99542270091104,-230.5448778074986,507.54811087507915,-237.35190713554599,595.7525820520171,-226.3451939641303C683.9570532289551,-215.3384807927146,726.3311159106356,-213.72097861845938,814.9301527538694,-190.644293450452C903.5291895971031,-167.56760828244464,1029.9825353098827,-128.39388826092807,1127.3468031114194,-87.88508295608602C1224.711070912956,-47.376277651243974,1306.3335606153719,26.21810565775625,1399.1157595630903,52.408538378600305C1491.8979585108086,78.59897109944436,1597.225956724911,49.4752110499286,1684.0399967977291,69.2575133689783C1770.8540368705474,89.03981568802799,1880.6733327996214,154.12821247224508,1920,171.10235229289844L 1920 1080 L 0 1080 Z" fill="url(&quot;#SvgjsLinearGradient1022&quot;)"></path><path d="M0,-330.92828136073985C50.81885226380694,-322.44876597182787,206.36293493263582,-307.0539167058778,304.9131135828416,-280.05118902726804C403.4632922330474,-253.0484613486583,500.79974764600485,-199.0614419373597,591.3010719012348,-168.91191528908132C681.8023961564647,-138.76238864080295,764.2346063056975,-119.37296122747458,847.9210591142212,-99.15402913759789C931.6075119227448,-78.9350970477212,1014.143297611569,-80.73100127861713,1093.4197887523767,-47.59832274982115C1172.6962798931843,-14.465644221025165,1225.6514907168678,61.846842413991,1323.5800059590672,99.64204203517801C1421.5085212012666,137.43724165636502,1581.5875478654182,156.17269078138247,1680.9908802055736,179.17287497730092C1780.394212545729,202.17305917321937,1880.165146700929,227.89810183845745,1920,237.64314721068877L 1920 1080 L 0 1080 Z" fill="url(&quot;#SvgjsLinearGradient1023&quot;)"></path><path d="M0,-178.0074433644889C40.397942203808775,-160.42129958034286,156.66865690663536,-104.63480673441441,242.38765322285263,-72.49058065961279C328.1066495390699,-40.346354584811166,418.9114469202438,-11.875590060484974,514.3139778973035,14.857913084320835C609.7165088743632,41.591416229126644,715.3212105362202,63.71070970977239,814.8028390852108,87.91043820922206C914.2844676342015,112.11016670867174,1017.3522121602721,134.3067704148053,1111.2037491912479,160.0562840810189C1205.0552862222237,185.8057977472325,1291.7344802792993,211.94131018584176,1377.9120612710658,242.4075202065037C1464.0896422628323,272.87373022716565,1537.9212453536913,315.77984765729883,1628.269235141847,342.85354420499056C1718.6172249300027,369.9272407526823,1871.3782058569745,394.5170069447101,1920,404.849699492654L 1920 1080 L 0 1080 Z" fill="url(&quot;#SvgjsLinearGradient1024&quot;)"></path><path d="M0,-42.53526633414284C46.65650207830523,-29.274596427963402,183.06393566703537,6.5687398560113195,279.93901246983137,37.028753102933806C376.81408927262737,67.48876634985629,492.0446704123193,108.89874682290463,581.250460816776,140.22481314739207C670.4562512212327,171.5508794718795,733.505228456337,201.384630452056,815.1737548965717,224.98515104985844C896.8422813368064,248.5856716476609,979.899076267948,256.20126413256236,1071.2616194581844,281.8279367342068C1162.624162648421,307.4546093358512,1268.6071063288534,344.5709363412885,1363.3490140379902,378.745186659725C1458.090921747127,412.9194369781615,1546.9379013860032,457.56303795332775,1639.7130657130049,486.87343864482597C1732.4882300400066,516.1838393363242,1873.2855109521674,543.3185654480662,1920,554.6075908087143L 1920 1080 L 0 1080 Z" fill="url(&quot;#SvgjsLinearGradient1025&quot;)"></path><path d="M0,120.72270561237795C71.23752894806366,143.72464581037258,306.4950796217313,225.67157824983184,427.4251736883819,258.7343468003458C548.3552677550325,291.79711535085977,602.0746001513505,284.80710073813935,725.5805643999038,319.0993169154617C849.086528648457,353.3915330927841,1029.818536927313,420.6311794320745,1168.4609591797016,464.48764386428C1307.1033814320901,508.34410829648556,1432.178591110852,537.6274979792502,1557.435097914235,582.2381035086951C1682.691604717618,626.84870903814,1859.572516319039,707.165748118907,1920,732.1512770409494L 1920 1080 L 0 1080 Z" fill="url(&quot;#SvgjsLinearGradient1026&quot;)"></path><path d="M0,203.50741590779145C56.88454573444784,223.66391334030516,235.7512044071533,293.9183347330884,341.30727440668704,324.44640050287364C446.8633444062208,354.9744662726589,528.6932710261431,348.9393756011851,633.3364199972024,386.6758105265031C737.9795689682617,424.4122454518211,857.557960596142,510.0916143166655,969.1661682330429,550.8650100547818C1080.7743758699437,591.6384057928981,1196.4756361314144,606.5734046733381,1302.9856658186075,631.3161849552006C1409.4956955058005,656.058965237063,1505.390623992636,666.3374389681435,1608.2263463562015,699.3216917459563C1711.062068719767,732.3059445237691,1868.0377243927003,807.5716999760571,1920,829.2217016220773L 1920 1080 L 0 1080 Z" fill="url(&quot;#SvgjsLinearGradient1027&quot;)"></path></svg>