<svg class="canvas" viewBox="0 0 1920 1080" preserveAspectRatio="xMaxYMid slice" xmlns="http://www.w3.org/2000/svg" version="1.1" xmlns:xlink="http://www.w3.org/1999/xlink" xmlns:svgjs="http://svgjs.dev/svgjs"><rect width="1920" height="1080" fill="hsl(167, 65%, 15%)"></rect><defs><linearGradient x1="0.5" y1="0" x2="0" y2="1" id="SvgjsLinearGradient1343"><stop stop-color="#28788a" offset="0"></stop><stop stop-color="#080614" offset="0.1"></stop></linearGradient><linearGradient x1="0.5" y1="0" x2="0" y2="1" id="SvgjsLinearGradient1344"><stop stop-color="#288a89" offset="0"></stop><stop stop-color="#060614" offset="0.22857142857142856"></stop></linearGradient><linearGradient x1="0.5" y1="0" x2="0" y2="1" id="SvgjsLinearGradient1345"><stop stop-color="#288a89" offset="0"></stop><stop stop-color="#060614" offset="0.3571428571428571"></stop></linearGradient><linearGradient x1="0.5" y1="0" x2="0" y2="1" id="SvgjsLinearGradient1346"><stop stop-color="#c0f2dd" offset="0"></stop><stop stop-color="#4280d7" offset="0.48571428571428565"></stop></linearGradient><linearGradient x1="0.5" y1="0" x2="0" y2="1" id="SvgjsLinearGradient1347"><stop stop-color="#c0f2f1" offset="0"></stop><stop stop-color="#4244d7" offset="0.6142857142857142"></stop></linearGradient><linearGradient x1="0.5" y1="0" x2="0" y2="1" id="SvgjsLinearGradient1348"><stop stop-color="#c0e8f2" offset="0"></stop><stop stop-color="#5d42d7" offset="0.7428571428571429"></stop></linearGradient><linearGradient x1="0.5" y1="0" x2="0" y2="1" id="SvgjsLinearGradient1349"><stop stop-color="#c0f2dd" offset="0"></stop><stop stop-color="#4280d7" offset="0.8714285714285713"></stop></linearGradient></defs><path d="M0,-577.5201932585044C49.36531277920122,-565.0488747972952,182.40198433004633,-525.6405417343344,296.1918766752073,-502.6922824912492C409.9817690203683,-479.744023248164,577.3253846758679,-474.53110161004315,682.739354070966,-439.83063779999304C788.1533234660641,-405.13017398994293,835.2789899531427,-329.0720033732368,928.6756930457957,-294.48949963094844C1022.0723961384487,-259.9069958886601,1135.8460320097065,-263.9922973117886,1243.1195726268836,-232.33561534626293C1350.3931132440607,-200.67893338073722,1459.5035321866726,-137.0186448524207,1572.3169367488586,-104.54940783779426C1685.1303413110445,-72.08017082316783,1862.0528227914765,-48.691729021719325,1920,-37.520193258504335L 1920 1080 L 0 1080 Z" fill="url(&quot;#SvgjsLinearGradient1343&quot;)"></path><path d="M0,-409.878082785801C65.42076112383218,-392.044389480978,266.5869517099733,-341.2207716011117,392.5245667429931,-302.87592295686295C518.4621817760129,-264.5310743126142,629.053113500466,-214.94525772565248,755.6256901981191,-179.8089909203084C882.1982668957721,-144.6727241149643,1023.1018958828271,-131.60185973008623,1151.9600269289115,-92.05832212479834C1280.8181579749958,-52.51478451951045,1400.7678142961106,18.04124244063364,1528.7744764746253,57.45223471141891C1656.78113865314,96.86322698220418,1854.7957460791042,129.91506536849755,1920,144.4076314999133L 1920 1080 L 0 1080 Z" fill="url(&quot;#SvgjsLinearGradient1344&quot;)"></path><path d="M0,-305.4430713876829C37.749661727006696,-292.0391061228337,131.60803912987006,-259.36906928163296,226.49797036204018,-225.0192797985878C321.3879015942103,-190.66949031554262,470.63260329171,-129.06289726873194,569.3395873930208,-99.34433448941184C668.0465714943316,-69.62577171009173,725.9197955784069,-68.52854770780037,818.7398749699051,-46.707903122667126C911.5599543614034,-24.887258537533885,1035.4747490961056,7.013157724449293,1126.2600637420098,31.57953302138761C1217.045378387914,56.14590831832593,1269.3845349477335,78.01805492701001,1363.4517628453304,100.69034865896279C1457.5189907429274,123.36264239091557,1597.9053916018129,140.54029399230717,1690.6634311275911,167.6132954131043C1783.4214706533694,194.68629683390145,1881.7772385212652,247.20918022197216,1920,263.1283571837457L 1920 1080 L 0 1080 Z" fill="url(&quot;#SvgjsLinearGradient1345&quot;)"></path><path d="M0,-179.2407613935852C47.033766515020176,-161.68133507072346,184.05527064435938,-94.3179417284985,282.20259909012105,-73.88420345641491C380.3499275358827,-53.45046518433132,492.9879215193832,-76.33972637790046,588.88397067457,-56.63833176108366C684.780019829757,-36.936937144266864,775.9217077172771,16.31007092150374,857.5788940212423,44.3241642444859C939.2360803252075,72.33825756746806,996.0565915076992,75.1047385972918,1078.8270884983613,111.4462281768093C1161.5975854890232,147.7877177563268,1267.3711568091887,225.39562649065434,1354.2018759652146,262.37310172159084C1441.0325951212405,299.3505769525273,1505.5117160953855,309.77053293876713,1599.8114034345165,333.3110795624283C1694.1110907736474,356.85162618608945,1866.6352339057528,391.8988311467028,1920,403.6163814635577L 1920 1080 L 0 1080 Z" fill="url(&quot;#SvgjsLinearGradient1346&quot;)"></path><path d="M0,-67.69939533745473C58.093680862020854,-46.9623003869101,238.4027763539737,19.683046928075065,348.56208517212514,56.72317436581305C458.72139399027657,93.76330180355103,559.1453732874892,120.60172448685617,660.9558529089086,154.54136928897316C762.766332530328,188.48101409109015,860.5381244288108,225.05582144901385,959.4249629006417,260.36104317851493C1058.3118013724727,295.666264908016,1146.856998517173,343.43948465121355,1254.2768837398944,366.3726996659796C1361.6967689626158,389.3059146807457,1492.9904215269528,370.7818729105407,1603.9442742369704,397.9603332671112C1714.898126946988,425.1387936236817,1867.3240457061618,507.5296070490206,1920,529.4434618054025L 1920 1080 L 0 1080 Z" fill="url(&quot;#SvgjsLinearGradient1347&quot;)"></path><path d="M0,61.1420637472533C84.16598552168851,90.9496746636916,349.95221543208504,193.02526888378208,504.99591313013104,239.98772924588303C660.039610828177,286.950189607984,777.7568027921418,292.4336267417004,930.2621861882758,342.9168259198591C1082.7675695844098,393.4000250980178,1255.071911204981,487.94462277217445,1420.0282135069351,542.8869243148354C1584.9845158088892,597.8292258574963,1836.6713689178225,650.9566833656598,1920,672.5706351758247L 1920 1080 L 0 1080 Z" fill="url(&quot;#SvgjsLinearGradient1348&quot;)"></path><path d="M0,238.01206517496956C68.09426016940628,265.414115798604,275.57929820619927,366.4787974696443,408.5655610164377,402.4243689167759C541.5518238266761,438.3699403639075,669.156081205952,424.3379042409491,797.9175768614303,453.68549385775924C926.6790725169087,483.03308347456937,1054.9908452535283,525.4125340468969,1181.134534949308,578.5099066176368C1307.278224645088,631.6072791883768,1431.635470860994,724.733655236929,1554.7797150361093,772.2697292821988C1677.9239592112247,819.8058033274685,1859.1299525060183,848.4835806214126,1920,863.7263508892553L 1920 1080 L 0 1080 Z" fill="url(&quot;#SvgjsLinearGradient1349&quot;)"></path></svg>