<svg class="canvas" viewBox="0 0 1920 1080" preserveAspectRatio="xMaxYMid slice" xmlns="http://www.w3.org/2000/svg" version="1.1" xmlns:xlink="http://www.w3.org/1999/xlink" xmlns:svgjs="http://svgjs.dev/svgjs"><rect width="1920" height="1080" fill="hsl(199, 65%, 15%)"></rect><defs><linearGradient x1="0.5" y1="0" x2="0" y2="1" id="SvgjsLinearGradient1000"><stop stop-color="#28448a" offset="0"></stop><stop stop-color="#100614" offset="0.1"></stop></linearGradient><linearGradient x1="0.5" y1="0" x2="0" y2="1" id="SvgjsLinearGradient1001"><stop stop-color="#28588a" offset="0"></stop><stop stop-color="#0d0614" offset="0.22857142857142856"></stop></linearGradient><linearGradient x1="0.5" y1="0" x2="0" y2="1" id="SvgjsLinearGradient1002"><stop stop-color="#28588a" offset="0"></stop><stop stop-color="#0d0614" offset="0.3571428571428571"></stop></linearGradient><linearGradient x1="0.5" y1="0" x2="0" y2="1" id="SvgjsLinearGradient1003"><stop stop-color="#c0c4f2" offset="0"></stop><stop stop-color="#ca42d7" offset="0.48571428571428565"></stop></linearGradient><linearGradient x1="0.5" y1="0" x2="0" y2="1" id="SvgjsLinearGradient1004"><stop stop-color="#c0d8f2" offset="0"></stop><stop stop-color="#8f42d7" offset="0.6142857142857142"></stop></linearGradient><linearGradient x1="0.5" y1="0" x2="0" y2="1" id="SvgjsLinearGradient1005"><stop stop-color="#c0e2f2" offset="0"></stop><stop stop-color="#7142d7" offset="0.7428571428571429"></stop></linearGradient><linearGradient x1="0.5" y1="0" x2="0" y2="1" id="SvgjsLinearGradient1006"><stop stop-color="#c0d8f2" offset="0"></stop><stop stop-color="#8f42d7" offset="0.8714285714285713"></stop></linearGradient></defs><path d="M0,-517.7194373892219C35.117956867797915,-508.7971123252762,128.61273124095527,-496.35294375322366,210.7077412067875,-464.1854870055479C292.8027511726197,-432.0180302578721,407.6618500030172,-347.9837643608552,492.5700597949933,-324.71469690316724C577.4782695869694,-301.44562944547926,640.2996878135807,-329.0622479272879,720.1569999586442,-324.57108225942005C800.0143121037077,-320.0799165915522,885.2064566359661,-320.39832530562774,971.7139326653743,-297.76770289596004C1058.2214086947824,-275.13708048629235,1164.3049988192536,-226.01611425245062,1239.2018561350928,-188.7873478014139C1314.098713450932,-151.55858135037715,1341.4439140723075,-92.58883008993399,1421.09507656041,-74.39510418973958C1500.7462390485125,-56.20137828954518,1633.9580104904421,-95.73760353366711,1717.1088310637072,-79.62499240024748C1800.2596516369722,-63.51238126682785,1886.1848051772845,5.296303442273899,1920,22.280562610778176L 1920 1080 L 0 1080 Z" fill="url(&quot;#SvgjsLinearGradient1000&quot;)"></path><path d="M0,-414.86074367155555C80.26629505747367,-387.12121758032185,322.58644853393616,-295.7687386510792,481.59777034484205,-248.4235871241533C640.6090921557479,-201.07843559722738,787.6531728438902,-165.63143300738213,954.0679308654354,-130.78983451000005C1120.4826888869807,-95.94823601261797,1319.0976402850192,-84.40979699388731,1480.0863184741133,-39.373996139860836C1641.0749966632075,5.661804714165633,1846.681053079019,109.62514282182218,1920,139.42497061415878L 1920 1080 L 0 1080 Z" fill="url(&quot;#SvgjsLinearGradient1001&quot;)"></path><path d="M0,-271.11446303560126C60.63445962506506,-259.12845519267063,244.72617768646916,-243.53134370114495,363.8067577503904,-199.1984159780176C482.8873378143116,-154.86548825489027,580.2157891508311,-52.89048852858617,714.4834803835274,-5.116896696837166C848.7511716162237,42.656695134911836,1035.0846493964073,63.79106562514889,1169.4129051465684,87.4431350124764C1303.7411608967295,111.09520439980392,1395.355165742255,101.7932145399028,1520.4530148844935,136.79551962712796C1645.5508640267321,171.7978247143531,1853.4088358140823,270.68005788437745,1920,297.45696553582735L 1920 1080 L 0 1080 Z" fill="url(&quot;#SvgjsLinearGradient1002&quot;)"></path><path d="M0,-180.2655136493972C53.12390460856171,-159.61188643316348,216.11925528505168,-90.43739832064338,318.74342765137027,-56.343750351994785C421.36760001768886,-22.25010238334618,509.97979129596666,-6.134537173326343,615.7450341979115,24.29637416249441C721.5102770998564,54.72728549831516,841.4272728438704,91.54739673598627,953.3348850630393,126.24171766292972C1065.2424972822082,160.93603858987316,1176.9987011026328,203.3472356983244,1287.1907075129252,232.46229972415503C1397.3827139232176,261.5773637499857,1509.018708110281,272.5772135706484,1614.4869235247936,300.9321018179135C1719.9551389393062,329.28699006517866,1869.081153920799,385.64837464277366,1920,402.5916292077457L 1920 1080 L 0 1080 Z" fill="url(&quot;#SvgjsLinearGradient1003&quot;)"></path><path d="M0,12.397999639603086C47.57030011450552,27.710383750813946,191.02854377035095,78.84076863120715,285.4218006870331,104.27230430686825C379.8150576037153,129.70383998252936,472.20223910204703,138.21635748229494,566.3595415000929,164.9872136935697C660.5168438981387,191.75806990484443,766.4189489530959,237.27441267960623,850.3656150753083,264.8974415745167C934.3122811975206,292.52047046942715,977.7044089770585,301.5781274861057,1070.0395382333668,330.72538706303243C1162.374667489675,359.87264663995916,1313.5781363197295,402.78467343844625,1404.3763906131578,439.780999036077C1495.174644906586,476.77732463370774,1528.891795762796,524.4100310244197,1614.8290639939364,552.703340648817C1700.766332225077,580.9966502732142,1869.1381773323228,600.0679374268531,1920,609.5408567824603L 1920 1080 L 0 1080 Z" fill="url(&quot;#SvgjsLinearGradient1004&quot;)"></path><path d="M0,147.44714016372725C48.82879689394594,166.1478708778015,194.01022698190127,229.82551363334053,292.97278136367567,259.6515244481726C391.93533574545006,289.4775352630047,475.1875757892975,289.2258260541899,593.7753262906465,326.4032050527197C712.3630767919955,363.58058405124956,893.2016714078485,438.9275306208177,1004.4992843717696,482.7157984393516C1115.7968973356906,526.5040662578855,1154.3556258253648,564.0874748677406,1261.561004074173,589.1328119639231C1368.7663823229814,614.1781490601056,1537.9917212103153,604.6973377450506,1647.7315538646199,632.9878210164466C1757.4713865189244,661.2783042878425,1874.6219256441034,737.8943964963233,1920,758.8757115922987L 1920 1080 L 0 1080 Z" fill="url(&quot;#SvgjsLinearGradient1005&quot;)"></path><path d="M0,237.51206187238728C67.35564286164829,249.14277006049022,281.22055548772386,264.2141508845063,404.1338571698898,307.29631100100494C527.0471588520556,350.3784711175036,607.08541855781,446.78776570482955,737.4798100929954,496.00502257137913C867.8742016281808,545.2222794379287,1050.0040383883218,565.6765320169239,1186.500206381002,602.5998522003024C1322.9963743736823,639.5231723836808,1434.2068524459107,674.1071944405878,1556.4568180490771,717.5449436716495C1678.7067836522435,760.9826929027113,1859.4094696748462,838.9461136008358,1920,863.226347586673L 1920 1080 L 0 1080 Z" fill="url(&quot;#SvgjsLinearGradient1006&quot;)"></path></svg>