<svg class="canvas" viewBox="0 0 1920 1080" preserveAspectRatio="xMaxYMid slice" xmlns="http://www.w3.org/2000/svg" version="1.1" xmlns:xlink="http://www.w3.org/1999/xlink" xmlns:svgjs="http://svgjs.dev/svgjs"><rect width="1920" height="1080" fill="hsl(167, 65%, 15%)"></rect><defs><linearGradient x1="0.5" y1="0" x2="0" y2="1" id="SvgjsLinearGradient1007"><stop stop-color="#28788a" offset="0"></stop><stop stop-color="#080614" offset="0.1"></stop></linearGradient><linearGradient x1="0.5" y1="0" x2="0" y2="1" id="SvgjsLinearGradient1008"><stop stop-color="#28518a" offset="0"></stop><stop stop-color="#0e0614" offset="0.22857142857142856"></stop></linearGradient><linearGradient x1="0.5" y1="0" x2="0" y2="1" id="SvgjsLinearGradient1009"><stop stop-color="#288a89" offset="0"></stop><stop stop-color="#060614" offset="0.3571428571428571"></stop></linearGradient><linearGradient x1="0.5" y1="0" x2="0" y2="1" id="SvgjsLinearGradient1010"><stop stop-color="#c0f2f1" offset="0"></stop><stop stop-color="#4244d7" offset="0.48571428571428565"></stop></linearGradient><linearGradient x1="0.5" y1="0" x2="0" y2="1" id="SvgjsLinearGradient1011"><stop stop-color="#c0e8f2" offset="0"></stop><stop stop-color="#5d42d7" offset="0.6142857142857142"></stop></linearGradient><linearGradient x1="0.5" y1="0" x2="0" y2="1" id="SvgjsLinearGradient1012"><stop stop-color="#c0f2e7" offset="0"></stop><stop stop-color="#4262d7" offset="0.7428571428571429"></stop></linearGradient><linearGradient x1="0.5" y1="0" x2="0" y2="1" id="SvgjsLinearGradient1013"><stop stop-color="#c0dff2" offset="0"></stop><stop stop-color="#7b42d7" offset="0.8714285714285713"></stop></linearGradient></defs><path d="M0,-528.5294888976639C89.17715067471765,-500.059404851543,365.9081966056723,-402.5346027908681,535.0629040483059,-357.70898462093845C704.2176114909395,-312.8833664510088,863.169710455321,-292.8959987032084,1014.9282446558018,-259.575779878086C1166.6867788562827,-226.25556105296357,1294.7688166938244,-202.9620535002742,1445.6141092511907,-157.78767167020385C1596.459401808557,-112.61328984013349,1840.9356848751984,-16.739186026420555,1920,11.470511102336104L 1920 1080 L 0 1080 Z" fill="url(&quot;#SvgjsLinearGradient1007&quot;)"></path><path d="M0,-363.6352274250928C58.83840317959065,-344.02295622963436,244.50723074866795,-280.7044236875079,353.0304190775439,-245.96160025234215C461.55360740641987,-211.21877681717638,547.997686784915,-183.16936170813094,651.1391299732556,-155.17828681409807C754.2805731615963,-127.18721192006521,871.4318985585326,-102.73926087114687,971.8790782075876,-78.01515088814497C1072.3262578566425,-53.29104090514308,1151.81737101233,-38.844096942869044,1253.8222078675856,-6.833626916086718C1355.827044722841,25.17684311069561,1472.8784673170512,81.1336503097643,1583.9080993391203,114.047669272549C1694.9377313611894,146.9616882353337,1863.9846832231867,177.88335059594272,1920,190.65048686062147L 1920 1080 L 0 1080 Z" fill="url(&quot;#SvgjsLinearGradient1008&quot;)"></path><path d="M0,-319.4684868342592C49.14147292056595,-311.14707605627007,197.52950829903483,-291.57917278069203,294.84883752339573,-269.54002216632466C392.16816674775663,-247.50087155195732,491.11823157901875,-229.15753613891607,583.9159753461653,-187.23358314805506C676.7137191133119,-145.30963015719405,767.1054526677306,-46.89904533919009,851.6353001262751,-17.996304221158645C936.1651475848196,10.906436896872798,1002.3813917723324,-24.43555120102716,1091.0950600974325,-13.81713643986641C1179.8087284225326,-3.198721678705658,1298.778786617276,9.539007178312247,1383.917310076875,45.71418434580586C1469.0558335364742,81.88936151329948,1512.5790858678395,169.33580033320135,1601.926200855027,203.2339265650953C1691.2733158422145,237.13205279698923,1866.9877001425045,241.45810587515706,1920,249.10294173716943L 1920 1080 L 0 1080 Z" fill="url(&quot;#SvgjsLinearGradient1009&quot;)"></path><path d="M0,-168.69599888542172C42.74793482573949,-148.77533537492423,177.520663946686,-73.0748531346605,256.48760895443695,-49.172017822436835C335.4545539621879,-25.269182510213167,399.7733025869192,-46.54306523681137,473.8016700465056,-25.278987012079703C547.830037506092,-4.0149087873480305,613.424244150746,47.43645293053241,700.6578137119553,78.4124515259532C787.8913832731647,109.38845012137399,914.2183588676951,146.78633388580107,997.2030874137616,160.57700456044506C1080.1878159598282,174.36767523508905,1119.7360489134724,140.12191310345233,1198.5661849883545,161.15647557381723C1277.3963210632367,182.19103804418214,1389.214249601494,256.0024307932909,1470.1839038630549,286.7843793826345C1551.1535581246158,317.56632797197807,1609.4147612015631,324.618706345031,1684.3841105577205,345.8481671098788C1759.353459913878,367.07762787472655,1880.7306850929535,402.77564782808076,1920,414.1611439717212L 1920 1080 L 0 1080 Z" fill="url(&quot;#SvgjsLinearGradient1010&quot;)"></path><path d="M0,-54.33265467908952C39.51319661841581,-35.25039338645531,148.7953361504579,32.990235144444284,237.07917971049486,60.160913076715765C325.3630232705318,87.33159100898725,424.44911084924416,91.68190492374111,529.7030613602218,108.69141291453937C634.9570118711995,125.70092090533763,771.6592244627467,131.71361572003735,868.6028827763607,162.2179610215053C965.5465410899748,192.72230632297322,1028.8444766167427,260.33007118304806,1111.365011241906,291.717484723347C1193.8855458670691,323.10489826364596,1269.0143450164094,329.78583839690856,1363.7260905273401,350.54244226329917C1458.437836038271,371.29904612968977,1586.923166062047,384.2124812216126,1679.6354843074903,416.2571079216907C1772.3478025529337,448.3017346217688,1879.9392473845817,521.7180200400883,1920,542.8102024637677L 1920 1080 L 0 1080 Z" fill="url(&quot;#SvgjsLinearGradient1011&quot;)"></path><path d="M0,125.25097087614112C86.97923859894358,147.63347769913068,355.58033141051385,203.2247238007181,521.8754315936615,259.54601181407844C688.1705317768091,315.8672998274388,837.6405464300108,401.75821583130886,997.7706010988857,463.17869895630326C1157.9006557677606,524.5991820812977,1328.950859790058,582.4854366726433,1482.6557596069106,628.0689105640449C1636.360659423763,673.6523844554465,1847.1092932678184,718.5777703479346,1920,736.6795423047125L 1920 1080 L 0 1080 Z" fill="url(&quot;#SvgjsLinearGradient1012&quot;)"></path><path d="M0,199.99215360866725C48.89999829723058,212.9212027156718,205.44634230614787,245.3151976190936,293.3999897833835,277.5664482506945C381.3536372606191,309.8176988822954,433.1236356564514,360.38635492344474,527.7218848634138,393.4996573982728C622.3201340703763,426.61295987310086,764.2419882569684,443.5543801276618,860.989485025158,476.24626309966294C957.7369817933477,508.9381460716641,1021.2343497196792,563.7022410672464,1108.206865472552,589.6509552302798C1195.1793812254245,615.5996693933132,1290.1569734001175,612.7716217425349,1382.8245795423943,631.9385480778631C1475.492185684671,651.1054744131912,1574.6832655832786,672.3578647014003,1664.2125023262129,704.6525132422487C1753.7417390691471,736.947161783097,1877.3687503877022,805.5307849761689,1920,825.706439322953L 1920 1080 L 0 1080 Z" fill="url(&quot;#SvgjsLinearGradient1013&quot;)"></path></svg>