<svg class="canvas" viewBox="0 0 1920 1080" preserveAspectRatio="xMaxYMid slice" xmlns="http://www.w3.org/2000/svg" version="1.1" xmlns:xlink="http://www.w3.org/1999/xlink" xmlns:svgjs="http://svgjs.dev/svgjs"><rect width="1920" height="1080" fill="hsl(244, 65%, 15%)"></rect><defs><linearGradient x1="0.5" y1="0" x2="0" y2="1" id="SvgjsLinearGradient1049"><stop stop-color="#28498a" offset="0"></stop><stop stop-color="#0f0614" offset="0.1"></stop></linearGradient><linearGradient x1="0.5" y1="0" x2="0" y2="1" id="SvgjsLinearGradient1050"><stop stop-color="#2f288a" offset="0"></stop><stop stop-color="#140613" offset="0.22857142857142856"></stop></linearGradient><linearGradient x1="0.5" y1="0" x2="0" y2="1" id="SvgjsLinearGradient1051"><stop stop-color="#28358a" offset="0"></stop><stop stop-color="#120614" offset="0.3571428571428571"></stop></linearGradient><linearGradient x1="0.5" y1="0" x2="0" y2="1" id="SvgjsLinearGradient1052"><stop stop-color="#c3c0f2" offset="0"></stop><stop stop-color="#d742cd" offset="0.48571428571428565"></stop></linearGradient><linearGradient x1="0.5" y1="0" x2="0" y2="1" id="SvgjsLinearGradient1053"><stop stop-color="#c0c7f2" offset="0"></stop><stop stop-color="#c342d7" offset="0.6142857142857142"></stop></linearGradient><linearGradient x1="0.5" y1="0" x2="0" y2="1" id="SvgjsLinearGradient1054"><stop stop-color="#c0daf2" offset="0"></stop><stop stop-color="#8742d7" offset="0.7428571428571429"></stop></linearGradient><linearGradient x1="0.5" y1="0" x2="0" y2="1" id="SvgjsLinearGradient1055"><stop stop-color="#cdc0f2" offset="0"></stop><stop stop-color="#d742af" offset="0.8714285714285713"></stop></linearGradient></defs><path d="M0,-504.88299770208295C63.11532505868246,-482.0494149661454,253.14477874545014,-404.11896506022214,378.69195035209475,-367.8815012864576C504.23912195873936,-331.64403751269305,624.7756600903496,-315.1819545757035,753.2830296398678,-287.4582150594957C881.790399189386,-259.73447554328794,1019.0434585373876,-236.16825496407301,1149.736167649204,-201.53906418921082C1280.4288767610203,-166.90987341434862,1409.0619789189664,-119.12574815817719,1537.4392843107657,-79.68307041032254C1665.8165897025651,-40.2403926624679,1856.2398807184609,15.983656846543788,1920,35.117002297917054L 1920 1080 L 0 1080 Z" fill="url(&quot;#SvgjsLinearGradient1049&quot;)"></path><path d="M0,-399.7737719601046C41.112623648881495,-389.6492229149742,162.49779857203595,-366.62649780886505,246.67574189328897,-339.02647768932206C330.853685214542,-311.4264575697791,410.12669690680923,-267.71906401564246,505.06765992751804,-234.1736512428467C600.0086229482268,-200.62823847005092,710.6836974293618,-158.06699150491337,816.3215200175418,-137.7540010525475C921.9593426057219,-117.44101060018161,1051.0725678092338,-141.1201714633755,1138.8945954565984,-112.29570852865136C1226.716623103963,-83.47124559392722,1258.408922419112,4.617226873975444,1343.25368590173,35.19277655579737C1428.098449384348,65.7683262376193,1551.8387906692612,51.271061933978174,1647.9631763523062,71.15758956228022C1744.087562035351,91.04411719058227,1874.660529392051,140.6195501983881,1920,154.51194232560968L 1920 1080 L 0 1080 Z" fill="url(&quot;#SvgjsLinearGradient1050&quot;)"></path><path d="M0,-268.80214925610176C51.90049855973748,-243.99562665974463,202.3240995328336,-147.46654083091977,311.40299135842486,-119.963013677959C420.4818831840161,-92.45948652499823,544.9733941680896,-132.68027799309232,654.4733509535477,-103.78098633833712C763.9733077390057,-74.88169468358191,864.2005926736734,11.811553306515528,968.4027320711732,53.432736250572205C1072.6048714686729,95.05391919462889,1170.8270924025883,114.30226660352248,1279.686187338546,145.94611132600295C1388.5452822745037,177.58995604848343,1514.8383329100106,217.6586099205677,1621.5573016869196,243.29580458545502C1728.2762704638285,268.93299925034233,1870.2595502811532,290.35703352701495,1920,299.7692793153269L 1920 1080 L 0 1080 Z" fill="url(&quot;#SvgjsLinearGradient1051&quot;)"></path><path d="M0,-137.38615473668585C41.48437190552976,-118.32194913148479,156.78629868580498,-45.45297138190202,248.90623143317856,-23.000921105479428C341.02616418055214,-0.5488708290568347,451.8908365294762,-31.427201635309125,552.7195964842414,-2.673853078150298C653.5483564390066,26.07949547900853,755.2743834169995,109.0747074693365,853.8787911617698,149.51917023747353C952.48319890654,189.96363300561057,1052.7749288624507,209.23890894921524,1144.346042952863,239.99292353067187C1235.9171570432752,270.7469381121285,1315.6641039987448,322.3958482230733,1403.3054757042428,334.04325772621326C1490.9468474097407,345.6906672293532,1584.0785191365571,291.3060921504711,1670.19427318585,309.8773805495117C1756.310027235143,328.4486689485523,1878.3657121976416,422.87205352529946,1920,445.47098812045704L 1920 1080 L 0 1080 Z" fill="url(&quot;#SvgjsLinearGradient1052&quot;)"></path><path d="M0,19.374902927550508C40.323920128201756,37.00222235127997,146.14101245943937,98.44850572089187,241.94352076921052,125.13881946992726C337.7460290789817,151.82913321896262,480.140543549546,158.1449795721295,574.815049858627,179.51678542176276C669.4895561677081,200.88859127139602,726.230231109834,222.52897678402445,809.9905586236966,253.3696545677269C893.7508861375593,284.2103323514294,982.7074713357218,335.540807015574,1077.3770149418028,364.5608521239775C1172.0465585478837,393.580897232381,1288.6542390052593,395.60567252958447,1378.0078202601824,427.489925218148C1467.3614015151054,459.37417790671157,1523.166472514705,524.3617291133155,1613.4985024713412,555.8663682553588C1703.8305324279775,587.3710073974021,1868.9164170785568,606.4091947678995,1920,616.5177600704077L 1920 1080 L 0 1080 Z" fill="url(&quot;#SvgjsLinearGradient1053&quot;)"></path><path d="M0,125.64230988851715C70.81135231370176,155.03043855261262,288.6747716096669,263.6889762054243,424.86811388221054,301.97108187308993C561.0614561547542,340.25318754075556,697.4375500041971,325.7769881593943,817.1600536352619,355.33494389451107C936.8825572663267,384.89289962962783,1021.9891634852853,442.95984817145785,1143.2031356685993,479.31881628379045C1264.4171078519134,515.677784396123,1414.9777426799128,530.5300750629569,1544.4438867351462,573.4887525685066C1673.9100307903796,616.4474300740562,1857.4073144558577,709.8071931923249,1920,737.0708813170886L 1920 1080 L 0 1080 Z" fill="url(&quot;#SvgjsLinearGradient1054&quot;)"></path><path d="M0,262.5291840254028C40.28006947868233,276.24843471256594,145.18130568433094,310.3458323932146,241.68041687209396,344.8446881483816C338.179528059857,379.34354390354855,487.02112113938125,442.84925286877467,578.9946671265781,469.52231855640457C670.9682131137748,496.19538424403447,709.6813970461117,478.52178226504793,793.5216927952747,504.88308227416087C877.3619885444377,531.2443822832738,984.5744512341962,597.4551388177654,1082.0364416215564,627.6901186110823C1179.4984320089166,657.9250984043993,1285.9650590639144,656.4099102733442,1378.2936351194357,686.2929610340627C1470.622211174957,716.1760117947813,1545.723503807924,773.3300050577891,1636.0078979546847,806.9884231753935C1726.2922921014454,840.6468412929978,1872.6679829924474,874.7009619789727,1920,888.2434697396885L 1920 1080 L 0 1080 Z" fill="url(&quot;#SvgjsLinearGradient1055&quot;)"></path></svg>