<svg class="canvas" viewBox="0 0 1920 1080" preserveAspectRatio="xMaxYMid slice" xmlns="http://www.w3.org/2000/svg" version="1.1" xmlns:xlink="http://www.w3.org/1999/xlink" xmlns:svgjs="http://svgjs.dev/svgjs"><rect width="1920" height="1080" fill="hsl(206, 65%, 15%)"></rect><defs><linearGradient x1="0.5" y1="0" x2="0" y2="1" id="SvgjsLinearGradient1147"><stop stop-color="#28738a" offset="0"></stop><stop stop-color="#090614" offset="0.1"></stop></linearGradient><linearGradient x1="0.5" y1="0" x2="0" y2="1" id="SvgjsLinearGradient1148"><stop stop-color="#28878a" offset="0"></stop><stop stop-color="#060614" offset="0.22857142857142856"></stop></linearGradient><linearGradient x1="0.5" y1="0" x2="0" y2="1" id="SvgjsLinearGradient1149"><stop stop-color="#28878a" offset="0"></stop><stop stop-color="#060614" offset="0.3571428571428571"></stop></linearGradient><linearGradient x1="0.5" y1="0" x2="0" y2="1" id="SvgjsLinearGradient1150"><stop stop-color="#c0f2e9" offset="0"></stop><stop stop-color="#425bd7" offset="0.48571428571428565"></stop></linearGradient><linearGradient x1="0.5" y1="0" x2="0" y2="1" id="SvgjsLinearGradient1151"><stop stop-color="#c0f2e9" offset="0"></stop><stop stop-color="#425bd7" offset="0.6142857142857142"></stop></linearGradient><linearGradient x1="0.5" y1="0" x2="0" y2="1" id="SvgjsLinearGradient1152"><stop stop-color="#c0f0f2" offset="0"></stop><stop stop-color="#4742d7" offset="0.7428571428571429"></stop></linearGradient><linearGradient x1="0.5" y1="0" x2="0" y2="1" id="SvgjsLinearGradient1153"><stop stop-color="#c0f0f2" offset="0"></stop><stop stop-color="#4742d7" offset="0.8714285714285713"></stop></linearGradient></defs><path d="M0,-508.8364302955183C50.079127630543724,-495.2797136799872,186.38448659376382,-451.23509052799204,300.47476578326234,-427.49613060233156C414.56504497276086,-403.7571706766711,580.5581570608381,-391.61251277373987,684.5416751369911,-366.40267074155554C788.5251932131441,-341.1928287093712,822.6832515654455,-319.24295239954233,924.3758742401807,-276.2370784092257C1026.0684969149158,-233.23120441890907,1185.199439683199,-141.40202439504412,1294.6974111854022,-108.36742679965566C1404.1953826876054,-75.3328292042672,1477.1466051176333,-101.28465892091789,1581.3637032533995,-78.029492836895C1685.5808013891658,-54.77432675287211,1863.5606172088999,12.96472594758555,1920,31.16356970448166L 1920 1080 L 0 1080 Z" fill="url(&quot;#SvgjsLinearGradient1147&quot;)"></path><path d="M0,-388.34611554711114C67.72888050287624,-363.47266172648585,274.43862856273404,-282.9786188708927,406.37328301725745,-239.1053926233593C538.3079374717809,-195.2321663758259,663.810502257711,-162.18031792941244,791.6079267271405,-125.10675806191075C919.4053511965699,-88.03319819440907,1042.790685225748,-47.963786571333586,1173.1578298338338,-16.66403341834925C1303.5249744419198,14.635719734635092,1449.3370993479612,32.25782216316992,1573.8107943756554,62.69176085599531C1698.2844894033497,93.1256995488207,1862.3017990626092,148.7316257581685,1920,165.93959873860314L 1920 1080 L 0 1080 Z" fill="url(&quot;#SvgjsLinearGradient1148&quot;)"></path><path d="M0,-269.4596059123267C73.94368702877311,-247.06003765142123,285.6457902816237,-186.1657479067018,443.66212217263865,-135.06219634689373C601.6784540636536,-83.95864478708566,775.512641725881,-11.782365544855288,948.0979913460894,37.16170344652169C1120.6833409662977,86.10577243789868,1317.1905517849036,114.94386439927149,1479.1742198938887,158.60221760136818C1641.1578880028737,202.26057080346487,1846.5290366489814,275.6935551494796,1920,299.1118226591019L 1920 1080 L 0 1080 Z" fill="url(&quot;#SvgjsLinearGradient1149&quot;)"></path><path d="M0,-178.00136246129404C84.9760987447408,-155.6112412286268,345.7718513730311,-91.91163434849797,509.8565924684448,-43.66063506529066C673.9413335638585,4.590364217916644,835.064779718992,58.46818674600141,984.5084465724821,111.50463323794983C1133.9521134259721,164.54107972989826,1250.6033346847985,225.66618602675007,1406.5185935893849,274.5580438863999C1562.4338524939712,323.44990174604976,1834.4197655982307,383.13949097760735,1920,404.85578039584885L 1920 1080 L 0 1080 Z" fill="url(&quot;#SvgjsLinearGradient1150&quot;)"></path><path d="M0,23.040315434315687C76.86080504104415,50.689554463413,295.26410645745017,141.4678391202143,461.16483024626484,188.93574960889958C627.0655540350795,236.40366009758486,833.8470628152314,261.3918947067938,995.404342732888,307.8477783664274C1156.9616226505445,354.30366202606103,1276.4092335410191,415.61515253157694,1430.5085097522044,467.6710515667012C1584.6077859633897,519.7269506018254,1838.4180849587008,594.7644857420943,1920,620.1831725771729L 1920 1080 L 0 1080 Z" fill="url(&quot;#SvgjsLinearGradient1151&quot;)"></path><path d="M0,88.44033266399819C46.480145968496004,97.15441759838843,165.39467512121973,109.45585786305985,278.880875810976,140.72484227033965C392.3670765007323,171.99382667761944,561.0966884618387,229.2609952052176,680.9172041385376,276.054239107677C800.7377198152366,322.84748301013644,891.095835191283,388.6457696740812,997.80396987117,421.48430568509616C1104.512104551057,454.32284169611114,1223.721922397029,445.97152680733603,1321.1660122178596,473.0854551737667C1418.6101020386902,500.1993835401974,1482.662844165797,546.370634397213,1582.4685087961536,584.1678758836802C1682.2741734265103,621.9651173701473,1863.7447514660257,680.5853993910881,1920,699.8689040925697L 1920 1080 L 0 1080 Z" fill="url(&quot;#SvgjsLinearGradient1152&quot;)"></path><path d="M0,225.1439813845678C59.91521349716584,242.59485491334982,230.66052823181602,295.1976249221416,359.491280982995,329.84922255725985C488.32203373417406,364.5008201923781,636.8567695974343,383.72401929045157,772.984516507074,433.0535671952774C909.1122634167136,482.3831151001033,1048.472242910595,577.986450996761,1176.257762440833,625.826509986215C1304.0432819710709,673.666568975669,1415.7405940953063,682.5886282798947,1539.697633688501,720.0939211320011C1663.6546732816955,757.5992139841076,1856.6162722814167,829.0642094377115,1920,850.8582670988536L 1920 1080 L 0 1080 Z" fill="url(&quot;#SvgjsLinearGradient1153&quot;)"></path></svg>