<svg class="canvas" viewBox="0 0 1920 1080" preserveAspectRatio="xMaxYMid slice" xmlns="http://www.w3.org/2000/svg" version="1.1" xmlns:xlink="http://www.w3.org/1999/xlink" xmlns:svgjs="http://svgjs.dev/svgjs"><rect width="1920" height="1080" fill="hsl(18, 65%, 15%)"></rect><defs><linearGradient x1="0.5" y1="0" x2="0" y2="1" id="SvgjsLinearGradient1154"><stop stop-color="#8a4628" offset="0"></stop><stop stop-color="#101406" offset="0.1"></stop></linearGradient><linearGradient x1="0.5" y1="0" x2="0" y2="1" id="SvgjsLinearGradient1155"><stop stop-color="#8a4628" offset="0"></stop><stop stop-color="#101406" offset="0.22857142857142856"></stop></linearGradient><linearGradient x1="0.5" y1="0" x2="0" y2="1" id="SvgjsLinearGradient1156"><stop stop-color="#8a4628" offset="0"></stop><stop stop-color="#101406" offset="0.3571428571428571"></stop></linearGradient><linearGradient x1="0.5" y1="0" x2="0" y2="1" id="SvgjsLinearGradient1157"><stop stop-color="#f2d9c0" offset="0"></stop><stop stop-color="#8cd742" offset="0.48571428571428565"></stop></linearGradient><linearGradient x1="0.5" y1="0" x2="0" y2="1" id="SvgjsLinearGradient1158"><stop stop-color="#f2cfc0" offset="0"></stop><stop stop-color="#aad742" offset="0.6142857142857142"></stop></linearGradient><linearGradient x1="0.5" y1="0" x2="0" y2="1" id="SvgjsLinearGradient1159"><stop stop-color="#f2c5c0" offset="0"></stop><stop stop-color="#c8d742" offset="0.7428571428571429"></stop></linearGradient><linearGradient x1="0.5" y1="0" x2="0" y2="1" id="SvgjsLinearGradient1160"><stop stop-color="#f2c0c5" offset="0"></stop><stop stop-color="#d7c842" offset="0.8714285714285713"></stop></linearGradient></defs><path d="M0,-537.9803315833872C84.43497453705437,-512.3121150187982,349.831999469769,-428.3300806795317,506.60984722232627,-383.97103219585347C663.3876949748835,-339.61198371217523,783.873752664747,-317.9532013179801,940.6670865153433,-271.82604068131786C1097.4604203659394,-225.69888004465565,1284.1476980784607,-152.84901989220202,1447.3698503259036,-107.20806837588022C1610.5920025733465,-61.567116859558425,1841.2283083876505,-16.184954382135974,1920,2.0196684166128733L 1920 1080 L 0 1080 Z" fill="url(&quot;#SvgjsLinearGradient1154&quot;)"></path><path d="M0,-457.44281545051814C46.18640218541281,-439.9184256264132,178.57135083184033,-382.40114610553394,277.11841311247684,-352.2964765058882C375.66547539311335,-322.1918069062425,479.6247248727337,-303.8944020614727,591.282373683819,-276.814797852644C702.9400224949042,-249.7351936438153,831.5246838748832,-220.48719572395248,947.0643059789884,-189.81885125291606C1062.6039280830937,-159.15050678187964,1175.3489517177804,-117.34872378526009,1284.5201063084503,-92.8047310264255C1393.6912608991202,-68.26073826759091,1496.177917907749,-74.1628330101788,1602.0912335230073,-42.554894699908516C1708.0045491382657,-10.946956389638235,1867.0152055871679,73.60993324601208,1920,96.8428988351962L 1920 1080 L 0 1080 Z" fill="url(&quot;#SvgjsLinearGradient1155&quot;)"></path><path d="M0,-246.95093101910095C72.71024163852903,-229.39254343049294,298.38669182377737,-171.20452265847405,436.26144983117416,-141.60060548745295C574.136207838571,-111.99668831643187,714.5007962917394,-101.33383669089987,827.2485480443809,-69.32742799297446C939.9962997970223,-37.321019295049055,1003.6481286715318,-5.162138369765721,1112.7479603470226,50.437846700099506C1221.8477920225134,106.03783176996473,1347.3055314884964,219.07537395084552,1481.847538097326,264.27248242621687C1616.3895447061554,309.4695909015882,1846.9745896828877,312.0624950313092,1920,321.62049755232766L 1920 1080 L 0 1080 Z" fill="url(&quot;#SvgjsLinearGradient1156&quot;)"></path><path d="M0,-125.03524552555342C58.95450968967174,-110.74347438392924,250.56515895219445,-70.58823997211562,353.72705813803043,-39.28461867580836C456.8889573238664,-7.980997379501105,521.5995197130784,28.842148870843964,618.9713951150158,62.78648225229012C716.3432705169531,96.73081563373628,828.5010958103685,135.99099788229427,937.9583105496545,164.38138161286858C1047.4155252889404,192.7717653434429,1169.3942881216294,199.24046549964888,1275.714683550732,233.12878463573603C1382.0350789798345,267.0171037718232,1468.4997970493923,330.2624443134159,1575.8806831242703,367.7112964293915C1683.2615691991482,405.16014854536706,1862.6467805207117,442.8034638478898,1920,457.82189733158947L 1920 1080 L 0 1080 Z" fill="url(&quot;#SvgjsLinearGradient1157&quot;)"></path><path d="M0,-41.176720923005306C60.97309337206655,-25.240351603942962,235.7472493487296,17.74781057016176,365.8385602323993,54.44149499136875C495.92987111606897,91.13517941257574,644.285144425348,133.27303584021837,780.5478653020181,178.9853856042366C916.8105861786881,224.69773536825483,1062.822681101148,292.29547013985274,1183.41488549242,328.71559357547807C1304.0070898836918,365.1357170111034,1381.336905898387,359.6310357772597,1504.1010916496502,397.50612621798865C1626.8652774009136,435.3812166587176,1850.6835152749418,529.5561345528747,1920,555.9661362198519L 1920 1080 L 0 1080 Z" fill="url(&quot;#SvgjsLinearGradient1158&quot;)"></path><path d="M0,64.9790828377773C57.00628202660306,79.66765470305857,234.7578767301187,122.9303995596012,342.03769215961836,153.11051402946498C449.317507589118,183.29062849932876,549.7155382908527,214.76948287967554,643.678892576998,246.05976965696C737.6422468631433,277.35005643424444,792.57916875965,303.7333997937812,905.8178178764903,340.8522346931716C1019.0564669933306,377.97106959256206,1203.3432622523012,428.38487478434627,1323.1107872780394,468.7727790533027C1442.8783123037776,509.16068332225916,1524.9414325772598,548.5738477714027,1624.42296803092,583.1796603069104C1723.9045034845801,617.785472842418,1870.7371613384867,660.869655273109,1920,676.4076542663487L 1920 1080 L 0 1080 Z" fill="url(&quot;#SvgjsLinearGradient1159&quot;)"></path><path d="M0,193.75274047341972C56.33588755277427,217.11867214842977,208.65060563085197,288.4231335811387,338.0153253166456,333.9483305234799C467.38004500243926,379.4735274658211,646.7591351951897,421.276962162726,776.1883181147617,466.9039221274669C905.6175010343337,512.5308820922078,989.6689760617758,563.6716094501635,1114.5904228340778,607.7100903119251C1239.5118696063798,651.7485711736867,1391.48206922092,695.8419846520734,1525.7169987485738,731.1348072980368C1659.9519282762276,766.4276299440002,1854.2861664580955,804.7449897060941,1920,819.4670261877055L 1920 1080 L 0 1080 Z" fill="url(&quot;#SvgjsLinearGradient1160&quot;)"></path></svg>