<svg class="canvas" viewBox="0 0 1920 1080" preserveAspectRatio="xMaxYMid slice" xmlns="http://www.w3.org/2000/svg" version="1.1" xmlns:xlink="http://www.w3.org/1999/xlink" xmlns:svgjs="http://svgjs.dev/svgjs"><rect width="1920" height="1080" fill="hsl(223, 65%, 15%)"></rect><defs><linearGradient x1="0.5" y1="0" x2="0" y2="1" id="SvgjsLinearGradient1161"><stop stop-color="#286b8a" offset="0"></stop><stop stop-color="#0a0614" offset="0.1"></stop></linearGradient><linearGradient x1="0.5" y1="0" x2="0" y2="1" id="SvgjsLinearGradient1162"><stop stop-color="#286b8a" offset="0"></stop><stop stop-color="#0a0614" offset="0.22857142857142856"></stop></linearGradient><linearGradient x1="0.5" y1="0" x2="0" y2="1" id="SvgjsLinearGradient1163"><stop stop-color="#287f8a" offset="0"></stop><stop stop-color="#070614" offset="0.3571428571428571"></stop></linearGradient><linearGradient x1="0.5" y1="0" x2="0" y2="1" id="SvgjsLinearGradient1164"><stop stop-color="#c0cef2" offset="0"></stop><stop stop-color="#ad42d7" offset="0.48571428571428565"></stop></linearGradient><linearGradient x1="0.5" y1="0" x2="0" y2="1" id="SvgjsLinearGradient1165"><stop stop-color="#c0e2f2" offset="0"></stop><stop stop-color="#7142d7" offset="0.6142857142857142"></stop></linearGradient><linearGradient x1="0.5" y1="0" x2="0" y2="1" id="SvgjsLinearGradient1166"><stop stop-color="#c0f2ed" offset="0"></stop><stop stop-color="#424ed7" offset="0.7428571428571429"></stop></linearGradient><linearGradient x1="0.5" y1="0" x2="0" y2="1" id="SvgjsLinearGradient1167"><stop stop-color="#c0f2ed" offset="0"></stop><stop stop-color="#424ed7" offset="0.8714285714285713"></stop></linearGradient></defs><path d="M0,-566.5154568285228C54.12396594606702,-550.9573060247765,223.5193682035441,-504.9600358260048,324.7437956764021,-473.16655200604475C425.9682231492601,-441.3730681860847,498.13601827381706,-404.27814874080457,607.346564837148,-375.75455390876255C716.5571114004789,-347.2309590767205,870.12887341903,-333.84169165102327,980.0070750563875,-302.02498301379245C1089.885276693745,-270.20827437656163,1159.5840030053846,-221.90751862019874,1266.6157746612928,-184.8543020853777C1373.647546317201,-147.80108555055665,1513.300334102052,-106.09549134767529,1622.1977049918364,-79.70568380486614C1731.095075881621,-53.31587626205699,1870.366284165306,-35.38049465791336,1920,-26.515456828522808L 1920 1080 L 0 1080 Z" fill="url(&quot;#SvgjsLinearGradient1161&quot;)"></path><path d="M0,-460.21929821114276C73.20406452724687,-433.1801262344767,317.7537629300379,-334.09719913929007,439.2243871634812,-297.9842663511463C560.6950113969245,-261.8713335630025,617.914284579997,-272.2433393795517,728.8237454006598,-243.5417014822802C839.7332062213227,-214.84006358500866,973.0028707798701,-161.70485762791304,1104.681152087458,-125.77443896751716C1236.359433395046,-89.84402030712127,1383.006958594097,-64.5993320269196,1518.8934332461872,-27.959189519904818C1654.7799078982775,8.680952987109968,1853.1489055410311,73.72881514215882,1920,94.06641607457155L 1920 1080 L 0 1080 Z" fill="url(&quot;#SvgjsLinearGradient1162&quot;)"></path><path d="M0,-312.8490551052322C64.55904614091337,-289.3431751145438,264.3677667228921,-209.49001648381952,387.35427684548023,-171.8137751611019C510.34078696806836,-134.13753383838426,615.3827994665155,-125.95959142741347,737.9190607355289,-86.79160716892642C860.4553220045423,-47.62362291043936,992.8875066833953,24.45866070100883,1122.5718444595605,63.19413038982046C1252.2561822357256,101.92960007863209,1383.1203948024468,113.533170451214,1516.02508739252,145.62121096394333C1648.9297799825931,177.70925147667265,1852.6708478987534,237.3721797158209,1920,255.72237346619642L 1920 1080 L 0 1080 Z" fill="url(&quot;#SvgjsLinearGradient1163&quot;)"></path><path d="M0,-127.15736999002466C62.7194340374942,-106.54554982379261,244.32251940546547,-48.73019327734228,376.3166042249652,-3.4864489926323543C508.31068904446494,41.75729529207757,668.4166007219703,110.70780566967684,791.9645089169984,144.3050957182349C915.5124171120265,177.90238576679295,993.9671488583047,160.80713594304729,1117.6040533951339,198.097291298716C1241.240957931963,235.3874466543847,1400.0532783704957,325.1122809241801,1533.7859361379733,368.0460278522471C1667.5185939054509,410.97977478031413,1855.6309893563289,441.0908153646397,1920,455.6997728671182L 1920 1080 L 0 1080 Z" fill="url(&quot;#SvgjsLinearGradient1164&quot;)"></path><path d="M0,3.164347988245538C43.375841261284165,12.184134110350035,173.02641389461297,24.27177181579919,260.255047567705,57.28306472087252C347.483681240797,90.29435762594585,424.8588750932209,168.2697565981581,523.3718020385521,201.23210541868548C621.8847289838834,234.19445423921286,754.5169906728796,231.64080142117822,851.3326092396925,255.0571576440369C948.1482278065054,278.4735138668956,1015.5592038317857,311.6840777008759,1104.2655134394295,341.73024275583754C1192.9718230470733,371.7764078107992,1293.5944116687956,411.71660556718786,1383.5704668855553,435.3341479738067C1473.546522102315,458.95169038042553,1554.716922554247,455.93998766933464,1644.1218447399879,483.4354971955507C1733.5267669257287,510.9310067217667,1874.0203074566646,580.8285871418441,1920,600.3072051311028L 1920 1080 L 0 1080 Z" fill="url(&quot;#SvgjsLinearGradient1165&quot;)"></path><path d="M0,90.25162080566666C44.921110668712174,106.64801916069231,178.66612831336442,156.35070285020097,269.52666401227305,188.63001093582062C360.38719971118167,220.90931902144027,449.67996326954784,252.26174833271259,545.1632141934518,283.9274693193846C640.6464651173558,315.5931903060566,756.696637570974,345.5909568877031,842.426169555697,378.6243368558528C928.1557015404201,411.6577168240025,967.8381182340951,461.25217264649166,1059.5404061017898,482.12774912828286C1151.2426939694847,503.00332561007406,1297.9217281104109,482.7491502575794,1392.6398967618657,503.87779574659993C1487.3580654133204,525.0064412356205,1539.956067470829,575.932555981133,1627.849418010518,608.899622062406C1715.742768550207,641.8666881436791,1871.3082363350863,686.2167638722661,1920,701.6801922342381L 1920 1080 L 0 1080 Z" fill="url(&quot;#SvgjsLinearGradient1166&quot;)"></path><path d="M0,261.1515231833759C44.8124092545244,274.4515208253513,175.29018778244313,313.60966313441736,268.8744555271464,340.95150903522824C362.45872327184964,368.2933549360391,468.3687672856029,391.12413615173364,561.5056064682196,425.202598588241C654.6424456508363,459.2810610247484,741.7921701059715,519.4062654389058,827.6954906228466,545.4222836542725C913.5988111397216,571.4383018696392,989.0339357994336,555.4713169327522,1076.9255295694697,581.2987078804414C1164.8171233395058,607.1260988281306,1260.9473406817044,662.3276908450833,1355.0450532430632,700.3866293404074C1449.142765804422,738.4455678357314,1547.3526471448,778.5724755928429,1641.5118049376226,809.6523388523852C1735.6709627304454,840.7322021119276,1873.5853008229371,873.9968972234489,1920,886.8658088976616L 1920 1080 L 0 1080 Z" fill="url(&quot;#SvgjsLinearGradient1167&quot;)"></path></svg>