<svg class="canvas" viewBox="0 0 1920 1080" preserveAspectRatio="xMaxYMid slice" xmlns="http://www.w3.org/2000/svg" version="1.1" xmlns:xlink="http://www.w3.org/1999/xlink" xmlns:svgjs="http://svgjs.dev/svgjs"><rect width="1920" height="1080" fill="hsl(347, 65%, 15%)"></rect><defs><linearGradient x1="0.5" y1="0" x2="0" y2="1" id="SvgjsLinearGradient1175"><stop stop-color="#8a2878" offset="0"></stop><stop stop-color="#140806" offset="0.1"></stop></linearGradient><linearGradient x1="0.5" y1="0" x2="0" y2="1" id="SvgjsLinearGradient1176"><stop stop-color="#8a283d" offset="0"></stop><stop stop-color="#141106" offset="0.22857142857142856"></stop></linearGradient><linearGradient x1="0.5" y1="0" x2="0" y2="1" id="SvgjsLinearGradient1177"><stop stop-color="#8a2865" offset="0"></stop><stop stop-color="#140b06" offset="0.3571428571428571"></stop></linearGradient><linearGradient x1="0.5" y1="0" x2="0" y2="1" id="SvgjsLinearGradient1178"><stop stop-color="#f2c0d5" offset="0"></stop><stop stop-color="#d79942" offset="0.48571428571428565"></stop></linearGradient><linearGradient x1="0.5" y1="0" x2="0" y2="1" id="SvgjsLinearGradient1179"><stop stop-color="#f2c0d5" offset="0"></stop><stop stop-color="#d79942" offset="0.6142857142857142"></stop></linearGradient><linearGradient x1="0.5" y1="0" x2="0" y2="1" id="SvgjsLinearGradient1180"><stop stop-color="#f2c0df" offset="0"></stop><stop stop-color="#d77b42" offset="0.7428571428571429"></stop></linearGradient><linearGradient x1="0.5" y1="0" x2="0" y2="1" id="SvgjsLinearGradient1181"><stop stop-color="#f2c0cb" offset="0"></stop><stop stop-color="#d7b742" offset="0.8714285714285713"></stop></linearGradient></defs><path d="M0,-554.208585547842C61.18118677755594,-534.6427602014483,241.34318233470674,-472.5822977701154,367.08712066533565,-436.81363346947944C492.83105899596455,-401.04496916884347,622.0924504817854,-376.22521862279336,754.4636299837733,-339.5965997440262C886.8348094857613,-302.96798086525905,1036.313913318954,-248.47638421181122,1161.3141976772636,-217.04192019687667C1286.314482035573,-185.60745618194213,1378.0177024131742,-184.795371429258,1504.4653361336302,-150.9898156544189C1630.9129698540862,-117.18425987957977,1850.7442226889384,-37.00545723227144,1920,-14.208585547841949L 1920 1080 L 0 1080 Z" fill="url(&quot;#SvgjsLinearGradient1175&quot;)"></path><path d="M0,-375.83680509927467C71.92677227816439,-359.9990025273597,299.15936567689084,-307.82068803241,431.5606336689863,-280.80998966778486C563.9619016610818,-253.79929130315975,673.8641080659535,-251.5170532164355,794.4076079525729,-213.77261491152407C914.9511078391923,-176.02817660661265,1027.2620249611562,-98.64407272886044,1154.821632988703,-54.34335983831634C1282.3812410162498,-10.042646947772234,1432.2355282826372,13.232950927614532,1559.7652561178534,52.03166243174053C1687.2949839530695,90.83037393586653,1859.9608760196422,157.37936806065645,1920,178.44890918643964L 1920 1080 L 0 1080 Z" fill="url(&quot;#SvgjsLinearGradient1176&quot;)"></path><path d="M0,-313.3358842418035C41.196748638557004,-297.6478508560911,163.4227502375196,-237.8525803181567,247.180491831342,-219.2076839275291C330.9382334251644,-200.5627875369015,427.41328930088054,-218.08647098043025,502.5464495629344,-201.46650589803795C577.6796098249882,-184.84654081564565,618.3653358911199,-152.06949535766532,697.9794534036652,-119.48789343317527C777.5935709162104,-86.90629150868523,894.2718082735823,-30.07840577115808,980.2311546382061,-5.976894351097705C1066.19050100283,18.12461706896267,1132.4215534985997,1.792376488775549,1213.735531591408,25.121175087186984C1295.0495096842164,48.44997368559842,1386.818075229142,104.29168388935626,1468.1150231950562,133.9958972393709C1549.4119711609703,163.70011058938553,1626.2030565860691,183.13984733889907,1701.517219386893,203.34645518727478C1776.8313821877168,223.5530630356505,1883.5862032311488,246.58736280590003,1920,255.23554432962507L 1920 1080 L 0 1080 Z" fill="url(&quot;#SvgjsLinearGradient1177&quot;)"></path><path d="M0,-165.58614128193753C71.95204942067443,-149.7541334889266,297.88926876538306,-108.37517473621872,431.71229652404656,-70.59409452387199C565.53532428271,-32.81301431152526,678.1430725514957,26.910303536787694,802.938166551981,61.100339992142835C927.7332605524663,95.29037644749798,1052.702306011085,86.93194195247011,1180.4828605269581,134.54612420825885C1308.2634150428312,182.16030646404758,1446.3686370683795,299.6646206323842,1569.6214936472197,346.7854335268753C1692.87435022606,393.9062464213664,1861.6035822745366,405.5234069004837,1920,417.27100157520533L 1920 1080 L 0 1080 Z" fill="url(&quot;#SvgjsLinearGradient1178&quot;)"></path><path d="M0,15.745331828268093C42.746129524251636,42.35726401731158,158.1239027351794,152.5862678374468,256.4767771455098,175.41692496252898C354.8296515558402,198.24758208761116,473.5379308412774,123.18054617023455,590.1172464619823,152.7292745787612C706.6965620826871,182.27800298728783,833.8770837730842,317.381045329411,955.9526708697391,352.70929541368884C1078.028257966394,388.0375454979667,1207.931648554458,327.3410290065535,1322.5707690419113,364.6987750844282C1437.2098895293645,402.05652116230283,1544.2158553014442,535.4908695664872,1643.787393794459,576.8557718809367C1743.3589322874736,618.2206741953862,1873.9645656324099,606.8827861227605,1920,612.8881889711254L 1920 1080 L 0 1080 Z" fill="url(&quot;#SvgjsLinearGradient1179&quot;)"></path><path d="M0,132.057181041381C70.00074043987003,158.285984749999,286.8103495323981,244.98820338246446,420.0044426392202,289.43000329308893C553.1985357460424,333.8718032037134,672.1349005123492,362.0688984199173,799.1645586409326,398.7079805051278C926.194216769516,435.34706259033834,1064.8615834843251,473.7134634492039,1182.1823914107206,509.26449580435207C1299.503199337116,544.8155281595002,1380.119804767758,572.9772985250833,1503.0894061993047,612.0141746360166C1626.0590076308513,651.05105074695,1850.5149010332175,721.5738228309631,1920,743.4857524699524L 1920 1080 L 0 1080 Z" fill="url(&quot;#SvgjsLinearGradient1180&quot;)"></path><path d="M0,255.64102496477255C57.88584351885805,274.951423960679,223.44372655969823,336.7298431925158,347.3150611131483,371.5034189402113C471.1863956665984,406.27699468790684,605.0153367987791,425.1445589838269,743.2280073207005,464.28247945094563C881.4406778426219,503.42039991806433,1052.2417737533913,558.909648375058,1176.5910842446767,606.3309417429236C1300.9403947359622,653.7522351107892,1365.422384309193,702.9728448354502,1489.3238702684134,748.8102396581394C1613.225356227634,794.6476344808285,1848.2206450447356,859.2644655089052,1920,881.3553106790583L 1920 1080 L 0 1080 Z" fill="url(&quot;#SvgjsLinearGradient1181&quot;)"></path></svg>