<svg class="canvas" viewBox="0 0 1920 1080" preserveAspectRatio="xMaxYMid slice" xmlns="http://www.w3.org/2000/svg" version="1.1" xmlns:xlink="http://www.w3.org/1999/xlink" xmlns:svgjs="http://svgjs.dev/svgjs"><rect width="1920" height="1080" fill="hsl(200, 65%, 15%)"></rect><defs><linearGradient x1="0.5" y1="0" x2="0" y2="1" id="SvgjsLinearGradient1182"><stop stop-color="#282f8a" offset="0"></stop><stop stop-color="#130614" offset="0.1"></stop></linearGradient><linearGradient x1="0.5" y1="0" x2="0" y2="1" id="SvgjsLinearGradient1183"><stop stop-color="#287d8a" offset="0"></stop><stop stop-color="#080614" offset="0.22857142857142856"></stop></linearGradient><linearGradient x1="0.5" y1="0" x2="0" y2="1" id="SvgjsLinearGradient1184"><stop stop-color="#28428a" offset="0"></stop><stop stop-color="#100614" offset="0.3571428571428571"></stop></linearGradient><linearGradient x1="0.5" y1="0" x2="0" y2="1" id="SvgjsLinearGradient1185"><stop stop-color="#c0ebf2" offset="0"></stop><stop stop-color="#5642d7" offset="0.48571428571428565"></stop></linearGradient><linearGradient x1="0.5" y1="0" x2="0" y2="1" id="SvgjsLinearGradient1186"><stop stop-color="#c0d7f2" offset="0"></stop><stop stop-color="#9142d7" offset="0.6142857142857142"></stop></linearGradient><linearGradient x1="0.5" y1="0" x2="0" y2="1" id="SvgjsLinearGradient1187"><stop stop-color="#c0ebf2" offset="0"></stop><stop stop-color="#5642d7" offset="0.7428571428571429"></stop></linearGradient><linearGradient x1="0.5" y1="0" x2="0" y2="1" id="SvgjsLinearGradient1188"><stop stop-color="#c0d7f2" offset="0"></stop><stop stop-color="#9142d7" offset="0.8714285714285713"></stop></linearGradient></defs><path d="M0,-559.7162666893313C63.550181384697254,-549.7354664123986,251.69029020875135,-530.2686100389392,381.3010883081835,-499.8314650277352C510.9118864076157,-469.3943200165312,644.1385570097101,-416.99903973767357,777.6647885965931,-377.09339662210743C911.1910201834761,-337.1877535065413,1050.2605250539445,-301.1438257728732,1182.4584778294816,-260.3976063343385C1314.6564306050186,-219.65138689580377,1447.9289182213952,-172.72963659840033,1570.8525052498148,-132.61607999089912C1693.7760922782345,-92.50252338339791,1861.808750874969,-38.53290223959257,1920,-19.716266689331263L 1920 1080 L 0 1080 Z" fill="url(&quot;#SvgjsLinearGradient1182&quot;)"></path><path d="M0,-403.31461212848876C60.27944486743917,-384.1543943293763,232.5528032593094,-316.88534611052694,361.676669204635,-288.3533053338141C490.80053514996064,-259.82126455710124,648.5760766609031,-263.5521734109,774.7431956719536,-232.12236746821185C900.910314683004,-200.69256152552367,999.7450906353375,-147.7907197663394,1118.6793832709377,-99.77446967768506C1237.6136759065378,-51.75821958903071,1354.795515364044,14.184204424562495,1488.3489514855544,55.97513306371426C1621.9023876070648,97.76606170286603,1848.0581585809257,135.13844064164033,1920,150.97110215722554L 1920 1080 L 0 1080 Z" fill="url(&quot;#SvgjsLinearGradient1183&quot;)"></path><path d="M0,-300.9257904683062C59.666370389065236,-285.35402535567823,255.2148326427531,-234.10596958010794,357.9982223343914,-207.49519979253816C460.78161202602973,-180.88443000496838,512.2431433038357,-169.15033488388053,616.7003381498299,-141.26117174288748C721.1575329958241,-113.37200860189445,872.2584662304117,-71.38140186327665,984.7413914103569,-40.160220946579926C1097.2243165903021,-8.939040029883206,1190.0752289201691,16.05616388705483,1291.5978892295009,46.065913757292826C1393.1205495388326,76.07566362753082,1489.1436681379312,102.96832421720981,1593.8773532663477,139.89827827484805C1698.6110383947641,176.8282323324863,1865.6462255443912,246.35441146507662,1920,267.64563810312234L 1920 1080 L 0 1080 Z" fill="url(&quot;#SvgjsLinearGradient1184&quot;)"></path><path d="M0,-143.09081524208716C52.960975455106045,-122.45061475559555,208.71990116389287,-53.519942745917284,317.76585273063625,-19.24961232313749C426.81180429737964,15.020718099642302,548.3117854534115,35.71233262005312,654.2757094004603,62.531167294591604C760.2396333475091,89.35000196913009,855.2563778129891,118.28398138822006,953.5493964129292,141.66339572409342C1051.8424150128694,165.04281005996677,1138.4379527549318,162.84498170071805,1244.0338210001016,202.80765330983175C1349.6296892452715,242.77032491894545,1474.4635760506321,341.9463129945717,1587.1246058839486,381.4394253787757C1699.785635717265,420.9325377629797,1864.5207676473246,430.0451772423424,1920,439.76632761505573L 1920 1080 L 0 1080 Z" fill="url(&quot;#SvgjsLinearGradient1185&quot;)"></path><path d="M0,16.280242744637064C61.59555994096439,24.72615506081987,269.57606023433294,27.81485579434323,369.57335964578635,66.95571664173389C469.57065905723977,106.09657748912454,502.4628513927715,201.6737872492115,599.9837964687206,251.125407828981C697.5047415446697,300.5770284087505,848.4282485677629,333.0020754522158,954.699030101481,363.6654401203509C1060.969811635199,394.328804788486,1136.436870076632,408.74884483564773,1237.608485671029,435.1055958377917C1338.780101265426,461.4623468399357,1447.9968046130346,492.0863621249312,1561.728723667863,521.805946133215C1675.4606427226915,551.5255301414987,1860.2881206113104,598.1535742617812,1920,613.4230998874943L 1920 1080 L 0 1080 Z" fill="url(&quot;#SvgjsLinearGradient1186&quot;)"></path><path d="M0,78.90729064476749C55.13691170907236,100.24288999652924,192.49328597910133,173.54627943923143,330.82147025443413,206.92088675533807C469.14965452976696,240.29549407144472,686.3539201740804,230.39599846720685,829.9691056519969,279.15493454140744C973.5842911299134,327.91387061560806,1075.0582121440236,456.7160168627593,1192.5125831219334,499.4745032005417C1309.9669540998432,542.232989538324,1413.447428706445,503.8956260893019,1534.695331519456,535.7058525681015C1655.943234332467,567.516079046901,1855.7825552532427,664.564193822466,1920,690.335862073339L 1920 1080 L 0 1080 Z" fill="url(&quot;#SvgjsLinearGradient1187&quot;)"></path><path d="M0,208.80813213463074C62.11685262075529,229.85702647445126,241.34626852787179,290.52366835665214,372.70111572453175,335.1014981735538C504.05596292119174,379.6793279904555,657.0064241960225,439.84379939515384,788.1290831799597,476.2751110360406C919.2517421638969,512.7064226769273,1035.633009391563,509.67757921369036,1159.4370696281546,553.6893680188745C1283.2411298647462,597.7011568240586,1404.1929562042023,693.540335562138,1530.9534445995098,740.345843867145C1657.7139329948172,787.1513521721521,1855.1589074332517,818.8263221852878,1920,834.5224178489165L 1920 1080 L 0 1080 Z" fill="url(&quot;#SvgjsLinearGradient1188&quot;)"></path></svg>