<svg class="canvas" viewBox="0 0 1920 1080" preserveAspectRatio="xMaxYMid slice" xmlns="http://www.w3.org/2000/svg" version="1.1" xmlns:xlink="http://www.w3.org/1999/xlink" xmlns:svgjs="http://svgjs.dev/svgjs"><rect width="1920" height="1080" fill="hsl(232, 65%, 15%)"></rect><defs><linearGradient x1="0.5" y1="0" x2="0" y2="1" id="SvgjsLinearGradient1189"><stop stop-color="#28358a" offset="0"></stop><stop stop-color="#120614" offset="0.1"></stop></linearGradient><linearGradient x1="0.5" y1="0" x2="0" y2="1" id="SvgjsLinearGradient1190"><stop stop-color="#28358a" offset="0"></stop><stop stop-color="#120614" offset="0.22857142857142856"></stop></linearGradient><linearGradient x1="0.5" y1="0" x2="0" y2="1" id="SvgjsLinearGradient1191"><stop stop-color="#42288a" offset="0"></stop><stop stop-color="#140610" offset="0.3571428571428571"></stop></linearGradient><linearGradient x1="0.5" y1="0" x2="0" y2="1" id="SvgjsLinearGradient1192"><stop stop-color="#cdc0f2" offset="0"></stop><stop stop-color="#d742af" offset="0.48571428571428565"></stop></linearGradient><linearGradient x1="0.5" y1="0" x2="0" y2="1" id="SvgjsLinearGradient1193"><stop stop-color="#d7c0f2" offset="0"></stop><stop stop-color="#d74291" offset="0.6142857142857142"></stop></linearGradient><linearGradient x1="0.5" y1="0" x2="0" y2="1" id="SvgjsLinearGradient1194"><stop stop-color="#cdc0f2" offset="0"></stop><stop stop-color="#d742af" offset="0.7428571428571429"></stop></linearGradient><linearGradient x1="0.5" y1="0" x2="0" y2="1" id="SvgjsLinearGradient1195"><stop stop-color="#e1c0f2" offset="0"></stop><stop stop-color="#d74273" offset="0.8714285714285713"></stop></linearGradient></defs><path d="M0,-546.3386826605768C46.27086354573024,-537.8791223833393,177.3723282649861,-525.3372693511026,277.6251812743815,-495.58132099715255C377.87803428377686,-465.82537264320257,487.2268780429964,-397.6778556516111,601.5171180563724,-367.8029925368768C715.8073580697484,-337.9281294221425,850.9733211707085,-352.6844141744234,963.3666213546372,-316.3321423087469C1075.759921538566,-279.97987044307035,1174.347225169743,-180.478282058556,1275.876919159945,-149.68936134281768C1377.4066131501468,-118.90044062707935,1465.190938489172,-155.49039779469038,1572.5447852958478,-131.59861801431688C1679.8986321025236,-107.7068382339434,1862.090797549308,-27.21533855286678,1920,-6.338682660576758L 1920 1080 L 0 1080 Z" fill="url(&quot;#SvgjsLinearGradient1189&quot;)"></path><path d="M0,-369.27977913795223C42.17933229373059,-350.84324364744714,155.50448870864014,-281.1830690006226,253.07599376238355,-258.66056619492184C350.6474988161269,-236.13806338922106,484.88936938643775,-259.3601862582667,585.4290303224604,-234.14476230374754C685.9686912584832,-208.92933834922837,764.9356001056045,-139.65543309216895,856.3139593785198,-107.3680224678069C947.6923186514351,-75.08061184344484,1050.1993883596256,-63.54418485087068,1133.6991859599523,-40.42029855757518C1217.198983560279,-17.29641226427968,1269.4738047054311,3.5028845443576166,1357.3127449804797,31.37529529196611C1445.1516852555283,59.24770603957461,1566.951618440324,101.2090592854431,1660.732827610244,126.81416592807577C1754.514036780164,152.41927257070842,1876.7888046017074,175.307306944481,1920,185.00593514776205L 1920 1080 L 0 1080 Z" fill="url(&quot;#SvgjsLinearGradient1190&quot;)"></path><path d="M0,-294.18536251998194C79.28543186990926,-270.1117639235581,322.7163094131251,-188.30486593324545,475.7125912194556,-149.7437709414389C628.708873025786,-111.18267594963234,753.7260831716203,-119.95015905057042,917.977690837983,-62.818792569142566C1082.2292985043457,-5.687426087714719,1294.2185190239625,136.84361817702995,1461.222237217632,193.04442794712816C1628.2259554113016,249.24523771722636,1843.537039536272,260.8291263673936,1920,274.3860660514467L 1920 1080 L 0 1080 Z" fill="url(&quot;#SvgjsLinearGradient1191&quot;)"></path><path d="M0,-167.1366181692716C42.075184016448674,-153.81449165645014,173.5779449763989,-111.2896316037198,252.45110409869204,-87.2038590923429C331.3242632209852,-63.11808658096599,398.79831238296583,-47.59089244332874,473.238954733759,-22.621983101010187C547.6795970845521,2.3469262413083705,614.2848171758629,40.83482219703669,699.0949582034509,62.609596961568464C783.9050992310389,84.38437172610024,901.9182200610111,82.4115406301355,982.0998008992871,108.02666548618048C1062.2813817375632,133.64179034222545,1107.1655842231273,185.21432857340366,1180.1844432331068,216.3003460978383C1253.2033022430862,247.3863636222729,1331.8659518813524,270.9385362496158,1420.2129549591632,294.5427706327882C1508.559958036974,318.14700501596053,1626.9686208598325,337.72946005435864,1710.266461699972,357.9257523968725C1793.5643025401116,378.12204473938635,1885.0444102833287,406.08806263937146,1920,415.72052468787126L 1920 1080 L 0 1080 Z" fill="url(&quot;#SvgjsLinearGradient1192&quot;)"></path><path d="M0,-22.694955170023732C51.76344697285642,-6.522649799779945,203.33222283085485,35.989083411264204,310.5806818371385,74.338877051439C417.8291408434222,112.6886706916138,540.0367834660645,173.4643155673506,643.490754037702,207.40380667102505C746.9447246093395,241.3432977746995,825.4085383078798,244.28399955627984,931.3045052669634,277.97582367348565C1037.200472226047,311.6676477906915,1169.5958652801032,374.03918294770114,1278.8665557922034,409.5547513742599C1388.1372463043035,445.0703198008187,1480.0730743049307,463.58704246640946,1586.9286483395636,491.06923423283837C1693.7842223741964,518.5514259992673,1864.488108056594,560.551457349501,1920,574.4479019728335L 1920 1080 L 0 1080 Z" fill="url(&quot;#SvgjsLinearGradient1193&quot;)"></path><path d="M0,124.23230216107987C35.628276538945954,140.83664088321618,139.1010180382653,201.99236380492562,213.76965923367572,223.8583344938977C288.43830042908615,245.72430518286978,357.4137506743032,232.72839410160663,448.01184717246264,255.42812629491235C538.6099436706221,278.12785848821807,670.1734394975089,325.05202833319834,757.3582382226324,360.05672765373197C844.5430369477559,395.0614269742656,891.4973155313653,445.2157697158593,971.1206395232035,465.456322218114C1050.7439635150417,485.69687472036867,1160.4462509436878,456.1510767565597,1235.0981821736614,481.50004266726006C1309.750113403635,506.84900857796043,1342.310549185653,579.4788934794022,1419.0322269030444,617.5501176823161C1495.7539046204358,655.62134188523,1611.933619628518,690.2422619001873,1695.4282484780106,709.9273878847431C1778.922877327503,729.6125138692989,1882.571374746335,731.3719593055,1920,735.6608735896514L 1920 1080 L 0 1080 Z" fill="url(&quot;#SvgjsLinearGradient1194&quot;)"></path><path d="M0,209.2754574465492C44.27708547723436,222.0354260512516,171.69393701996728,252.28776523705483,265.66251286340616,285.8352690747636C359.63108870684505,319.3827729124723,471.2958046024477,374.5682465920784,563.8114550606333,410.56048047280166C656.3271055188189,446.5527143535249,730.5469025306633,480.5142675805252,820.7564156125198,501.7886723591031C910.9659286943764,523.0630771376809,1017.7743649104898,507.27837165782046,1105.0685335517728,538.2069091442689C1192.3627021930558,569.1354466307174,1256.7634886912535,655.3658039899896,1344.5214274602183,687.3598972777941C1432.279366229183,719.3539905655986,1535.7030707422648,705.5664945572557,1631.6161661655617,730.171468871096C1727.5292615888586,754.7764431849362,1871.9360276942602,817.5200307792119,1920,834.989743160835L 1920 1080 L 0 1080 Z" fill="url(&quot;#SvgjsLinearGradient1195&quot;)"></path></svg>