<svg class="canvas" viewBox="0 0 1920 1080" preserveAspectRatio="xMaxYMid slice" xmlns="http://www.w3.org/2000/svg" version="1.1" xmlns:xlink="http://www.w3.org/1999/xlink" xmlns:svgjs="http://svgjs.dev/svgjs"><rect width="1920" height="1080" fill="hsl(227, 65%, 15%)"></rect><defs><linearGradient x1="0.5" y1="0" x2="0" y2="1" id="SvgjsLinearGradient1042"><stop stop-color="#283d8a" offset="0"></stop><stop stop-color="#110614" offset="0.1"></stop></linearGradient><linearGradient x1="0.5" y1="0" x2="0" y2="1" id="SvgjsLinearGradient1043"><stop stop-color="#4e288a" offset="0"></stop><stop stop-color="#14060e" offset="0.22857142857142856"></stop></linearGradient><linearGradient x1="0.5" y1="0" x2="0" y2="1" id="SvgjsLinearGradient1044"><stop stop-color="#283d8a" offset="0"></stop><stop stop-color="#110614" offset="0.3571428571428571"></stop></linearGradient><linearGradient x1="0.5" y1="0" x2="0" y2="1" id="SvgjsLinearGradient1045"><stop stop-color="#c0cbf2" offset="0"></stop><stop stop-color="#b742d7" offset="0.48571428571428565"></stop></linearGradient><linearGradient x1="0.5" y1="0" x2="0" y2="1" id="SvgjsLinearGradient1046"><stop stop-color="#d3c0f2" offset="0"></stop><stop stop-color="#d7429e" offset="0.6142857142857142"></stop></linearGradient><linearGradient x1="0.5" y1="0" x2="0" y2="1" id="SvgjsLinearGradient1047"><stop stop-color="#c0c1f2" offset="0"></stop><stop stop-color="#d442d7" offset="0.7428571428571429"></stop></linearGradient><linearGradient x1="0.5" y1="0" x2="0" y2="1" id="SvgjsLinearGradient1048"><stop stop-color="#d3c0f2" offset="0"></stop><stop stop-color="#d7429e" offset="0.8714285714285713"></stop></linearGradient></defs><path d="M0,-556.0552999817521C46.2032621331173,-542.8169657534763,190.1353269712061,-499.106075835286,277.2195727987038,-476.6252946120972C364.30381862620146,-454.1445133889084,435.6497201648899,-447.9128251245716,522.505474964986,-421.1706126426196C609.361229765082,-394.42840016066754,703.1463642681207,-343.33682713193826,798.35410159928,-316.1720197203851C893.5618389304394,-289.0072123088319,996.192994988869,-277.35594065187325,1093.7518989519424,-258.18176817330044C1191.3108029150158,-239.00759569472763,1288.959824960022,-229.68936985752427,1383.7075253777202,-201.12698484894827C1478.4552257954185,-172.56459984037227,1572.8560223544184,-117.65273893304379,1662.2381014581317,-86.80745812184443C1751.620180561845,-55.962177310645075,1877.0396835763554,-27.847326338434137,1920,-16.05529998175208L 1920 1080 L 0 1080 Z" fill="url(&quot;#SvgjsLinearGradient1042&quot;)"></path><path d="M0,-419.43875381606256C62.35346620306988,-407.04706511839674,238.3616173082936,-383.6119258346188,374.1207972184193,-345.08862163006785C509.87997712854497,-306.5653174255169,678.8358179152017,-231.46163056101037,814.5550794607541,-188.29892858875706C950.2743410063065,-145.13622661650376,1062.0891223575495,-126.5035882007584,1188.4363664917335,-86.11240979654806C1314.7836106259174,-45.72123139233772,1450.7112720144796,17.221580125471718,1572.6385442658573,54.04814183650502C1694.565816517235,90.87470354753832,1862.1064240443095,121.38049069746063,1920,134.84696046965175L 1920 1080 L 0 1080 Z" fill="url(&quot;#SvgjsLinearGradient1043&quot;)"></path><path d="M0,-269.89892983112895C46.464910911713,-254.46756052845154,169.3861663892245,-201.73369116827814,278.789465470278,-177.31071401506443C388.1927645513315,-152.88773686185073,548.2723850267166,-163.06784897347896,656.4197944863208,-123.36106691184679C764.567203945925,-83.65428485021462,819.7622611546421,25.544536016130145,927.673922227903,60.929978354728604C1035.5855833011638,96.31542069332707,1191.5687729120787,72.9679489682399,1303.8897609258856,88.95158711974393C1416.2107489396926,104.93522527124797,1498.9148104650592,121.87832199366017,1601.5998503107448,156.8318072637528C1704.2848901564305,191.78529253384545,1866.933308385124,275.03238349420855,1920,298.6724987402997L 1920 1080 L 0 1080 Z" fill="url(&quot;#SvgjsLinearGradient1044&quot;)"></path><path d="M0,-186.10128284155363C56.13118292413386,-157.41978583686515,200.28739018705855,-55.31467627023837,336.78709754480315,-14.012300813422726C473.2868049025477,27.29007464339292,677.077801112602,30.460560474589258,818.9982441464675,61.71296989934025C960.9186871803331,92.96537932409124,1068.488045434657,145.6744407226645,1188.3097557479966,173.50215573508325C1308.1314660613364,201.32987074750199,1415.9801319845053,191.47030926043502,1537.9285060265058,228.67925997385268C1659.8768800685064,265.8882106872704,1856.3214176710844,368.7430933419665,1920,396.7558600155893L 1920 1080 L 0 1080 Z" fill="url(&quot;#SvgjsLinearGradient1045&quot;)"></path><path d="M0,15.435824126908983C40.752261440309745,25.065687431020656,160.22024582624005,47.82847740372242,244.51356864185848,73.215003951579C328.8068914574769,98.6015304994356,432.5472019592842,142.0854856836715,505.7599368937107,167.75498341404852C578.9726718281372,193.42448114442556,614.4167640562238,198.11710064690251,683.7899782484174,227.23199033384117C753.1631924406109,256.34688002077985,842.4050804954745,321.9055768505397,921.9992220468722,342.44432153568044C1001.5933635982699,362.9830662208212,1069.3455380814414,322.37765224681584,1161.3548275568037,350.4644584446856C1253.364117032166,378.55126464255534,1395.3546828190783,485.39703973465294,1474.0549588990461,510.96515872289876C1552.755234979014,536.5332777111446,1559.2323105197843,486.93758528301584,1633.5564840366098,503.8731723741604C1707.8806575534354,520.808759465305,1872.2594140061017,594.4610964538319,1920,612.5786812697662L 1920 1080 L 0 1080 Z" fill="url(&quot;#SvgjsLinearGradient1046&quot;)"></path><path d="M0,88.29962001366417C37.300898832516474,101.83453923103706,143.01483315719838,137.7120457711476,223.80539299509883,169.5091353179015C304.5959528329993,201.3062248646554,394.9004449163638,248.69360398943024,484.74335902740256,279.08215729418765C574.5862731384414,309.47071059894506,691.6160330419287,333.38354574831305,762.8628776613313,351.8404551464459C834.1097222807338,370.2973645445787,833.4340218243672,365.5794784614392,912.2244267438177,389.82361368298484C991.0148316632683,414.0677489045305,1150.0635148182562,478.4451517030656,1235.6053071780343,497.3052664757198C1321.1470995378124,516.1653812483739,1346.0899052594336,489.6336525005242,1425.4751809024863,502.98430231890984C1504.860456545539,516.3349521372954,1629.496157853431,544.6185171988127,1711.91696103635,577.4091653860337C1794.3377642192688,610.1998135732547,1885.3194935060583,679.3416870995353,1920,699.7281914422356L 1920 1080 L 0 1080 Z" fill="url(&quot;#SvgjsLinearGradient1047&quot;)"></path><path d="M0,242.6590356035537C53.8180865598996,264.3784623147079,221.69213536256734,337.81948676572176,322.9085193593976,372.97559587047897C424.12490335622783,408.1317049752362,501.0007708998374,424.44741609004575,607.2983039809815,453.59569023209696C713.5958370621256,482.74396437414816,849.9707658736405,515.9597401347205,960.6937178462622,547.8652407227861C1071.4166698188837,579.7707413108517,1160.1344338426522,606.533368754699,1271.6360158167113,645.0286937604907C1383.1375977907703,683.5240187662823,1521.6425456600678,741.6130861646446,1629.703209690616,778.8371907575361C1737.7638737211641,816.0612953504275,1871.6172016151027,853.4506328911223,1920,868.3733213178394L 1920 1080 L 0 1080 Z" fill="url(&quot;#SvgjsLinearGradient1048&quot;)"></path></svg>