<svg class="canvas" viewBox="0 0 1920 1080" preserveAspectRatio="xMaxYMid slice" xmlns="http://www.w3.org/2000/svg" version="1.1" xmlns:xlink="http://www.w3.org/1999/xlink" xmlns:svgjs="http://svgjs.dev/svgjs"><rect width="1920" height="1080" fill="hsl(228, 65%, 15%)"></rect><defs><linearGradient x1="0.5" y1="0" x2="0" y2="1" id="SvgjsLinearGradient1007"><stop stop-color="#28638a" offset="0"></stop><stop stop-color="#0b0614" offset="0.1"></stop></linearGradient><linearGradient x1="0.5" y1="0" x2="0" y2="1" id="SvgjsLinearGradient1008"><stop stop-color="#283c8a" offset="0"></stop><stop stop-color="#110614" offset="0.22857142857142856"></stop></linearGradient><linearGradient x1="0.5" y1="0" x2="0" y2="1" id="SvgjsLinearGradient1009"><stop stop-color="#283c8a" offset="0"></stop><stop stop-color="#110614" offset="0.3571428571428571"></stop></linearGradient><linearGradient x1="0.5" y1="0" x2="0" y2="1" id="SvgjsLinearGradient1010"><stop stop-color="#c0caf2" offset="0"></stop><stop stop-color="#b942d7" offset="0.48571428571428565"></stop></linearGradient><linearGradient x1="0.5" y1="0" x2="0" y2="1" id="SvgjsLinearGradient1011"><stop stop-color="#c0c0f2" offset="0"></stop><stop stop-color="#d742d7" offset="0.6142857142857142"></stop></linearGradient><linearGradient x1="0.5" y1="0" x2="0" y2="1" id="SvgjsLinearGradient1012"><stop stop-color="#c0def2" offset="0"></stop><stop stop-color="#7d42d7" offset="0.7428571428571429"></stop></linearGradient><linearGradient x1="0.5" y1="0" x2="0" y2="1" id="SvgjsLinearGradient1013"><stop stop-color="#c0caf2" offset="0"></stop><stop stop-color="#b942d7" offset="0.8714285714285713"></stop></linearGradient></defs><path d="M0,-534.1738162318973C42.6246232299248,-516.5097422210288,167.76950999212323,-458.6360028492574,255.74773937954882,-428.18937216668667C343.7259687669744,-397.7427414841159,426.73043917640103,-371.8428759058283,527.8693763245534,-351.49403213647287C629.0083134727057,-331.14518836711744,763.1654791166275,-319.88233358617475,862.581362268463,-306.0963095505541C961.9972454202984,-292.31028551493347,1046.2639946957875,-296.854749304218,1124.3646752355664,-268.777887922749C1202.4653557753454,-240.70102654128004,1252.0282703860537,-178.8084905519272,1331.1854455071366,-137.6351412617402C1410.3426206282195,-96.46179197155317,1501.17196687992,-45.64801301993403,1599.307725962064,-21.73779218162688C1697.443485044208,2.172428656680264,1866.551287660344,1.2321877764810933,1920,5.826183768102688L 1920 1080 L 0 1080 Z" fill="url(&quot;#SvgjsLinearGradient1007&quot;)"></path><path d="M0,-429.35240756714757C40.67956513238652,-416.86422503265123,148.05085024930065,-375.91528498584114,244.07739079431911,-354.42331236016946C340.1039313393376,-332.9313397344978,474.3062118400812,-332.7277475681633,576.1592432701107,-300.40057181311766C678.0122747001402,-268.07339605807203,773.3449640999193,-191.19402486400008,855.1955793744961,-160.46025782989577C937.046194649073,-129.72649079579145,986.7341729314953,-134.06804150951913,1067.2629349175718,-115.99796960849181C1147.7916969036482,-97.92789770746451,1241.6870433243487,-82.62617910360873,1338.368151290955,-52.039826423731924C1435.0492592575613,-21.45347374385511,1550.410941265702,38.024624280385964,1647.3495827172094,67.52014647076908C1744.2882241687169,97.01566866115219,1874.5582637862017,115.36444667726713,1920,124.93330671856673L 1920 1080 L 0 1080 Z" fill="url(&quot;#SvgjsLinearGradient1008&quot;)"></path><path d="M0,-317.704075171347C48.99488571227355,-296.4426084708628,209.18917256049497,-219.94758539669863,293.9693142736413,-190.13527496844193C378.74945598678767,-160.32296454018524,441.0887684925918,-157.87224368706862,508.680850278878,-138.83021260180686C576.2729320651641,-119.78818151654511,627.9331709578668,-84.62343615568565,699.5218049913584,-75.88308845687143C771.11043902485,-67.14274075805722,857.3221639779879,-109.13605195972457,938.2126544798276,-86.38812640892152C1019.1031449816674,-63.640200858118476,1100.2428685101286,29.04649877223766,1184.8647480023972,60.60446484794681C1269.4866274946658,92.16243092365596,1357.2885172386202,86.67744331724681,1445.9439314334386,102.95967004533338C1534.599345628257,119.24189677341995,1637.7878884102138,133.6465446573415,1716.7972331713074,158.29782521646624C1795.806577932401,182.94910577559097,1886.132872195218,235.43909870281243,1920,250.86735340008167L 1920 1080 L 0 1080 Z" fill="url(&quot;#SvgjsLinearGradient1009&quot;)"></path><path d="M0,-132.00358887747484C57.91572822100192,-115.96783250115345,218.11467492774528,-81.30874695520943,347.4943693260115,-35.78905061954656C476.87406372427773,9.730645716116314,639.2234350971655,97.59695399243805,776.2781663895973,141.1145891365024C913.3328976820292,184.63222428056673,1048.7627893223096,186.28182045182632,1169.8227570806023,225.3167602448395C1290.882724838895,264.35170003785265,1377.6084324527872,337.7347622721099,1502.6379729393534,375.3242278945813C1627.6675134259197,412.91369351705276,1850.4396621565588,438.26533296548695,1920,450.85355397966805L 1920 1080 L 0 1080 Z" fill="url(&quot;#SvgjsLinearGradient1010&quot;)"></path><path d="M0,-30.389797441693965C36.4648730572838,-12.392158499614997,146.42177492843808,47.336520300899224,218.78923834370283,77.59603621077986C291.1567017589676,107.85555212066049,357.6061878758777,136.74230648621963,434.20478049158856,151.16729801758984C510.8033731072994,165.59228954896005,581.0478218179466,137.74358056487225,678.3807940379679,164.14598539900118C775.7137662579893,190.5483902331301,935.0469102400222,284.64193518320593,1018.2026138117168,309.5817270223634C1101.3583173834113,334.52151886152086,1112.7956978684017,295.5327795609699,1177.3150154681357,313.7847364339461C1241.8343330678697,332.03669330692225,1311.1998449703544,395.60878476383255,1405.3185194101204,419.0934682602204C1499.4371938498864,442.57815175660824,1656.2468153417517,430.08290550544945,1742.0270621067316,454.69283741227326C1827.8073088717115,479.3027693190971,1890.3378436844553,548.0763559863483,1920,566.7530597011632L 1920 1080 L 0 1080 Z" fill="url(&quot;#SvgjsLinearGradient1011&quot;)"></path><path d="M0,86.51932624098637C52.95073297325509,94.29913852188238,219.62002540289058,104.7009721798479,317.70439783953054,133.1981999263624C415.7887702761705,161.69542767287692,496.22181927883787,213.54059852295535,588.5062346198397,257.5026927200734C680.7906499608415,301.4647869171915,794.5597256515335,372.65973869757227,871.4108898855413,396.9707651090708C948.2620541195491,421.2817915205693,963.8557634985822,381.49682842190623,1049.6132200238867,403.36885118906446C1135.3706765491913,425.2408739562227,1291.1710154381342,499.90759943026114,1385.9556290373687,528.2029017120202C1480.7402426366032,556.4982039937793,1529.3135064588548,544.8498322200292,1618.3209016192934,573.1406648796187C1707.328296779732,601.4314975392083,1869.7201502698822,677.146692204568,1920,697.9478976695578L 1920 1080 L 0 1080 Z" fill="url(&quot;#SvgjsLinearGradient1012&quot;)"></path><path d="M0,191.88061826513763C59.45781731594653,211.01956132324935,254.12382667395406,274.74689505116413,356.74690389567917,306.71427661380795C459.3699811174043,338.6816581764518,506.36166753403364,352.6400838246979,615.7384633303508,383.68490764100056C725.1152591266679,414.7297314573032,898.2243547795451,462.97457571306836,1013.0076786735818,492.983219511624C1127.7910025676185,522.9918633101796,1209.837685715569,529.8078178212274,1304.438406694571,563.7367704323343C1399.0391276735731,597.6657230434412,1478.0184056633561,654.2472462537504,1580.6120045475943,696.5569351782652C1683.2056034318325,738.8666241027801,1863.4353340912658,797.4219091792304,1920,817.5949039794234L 1920 1080 L 0 1080 Z" fill="url(&quot;#SvgjsLinearGradient1013&quot;)"></path></svg>