<svg class="canvas" viewBox="0 0 1920 1080" preserveAspectRatio="xMaxYMid slice" xmlns="http://www.w3.org/2000/svg" version="1.1" xmlns:xlink="http://www.w3.org/1999/xlink" xmlns:svgjs="http://svgjs.dev/svgjs"><rect width="1920" height="1080" fill="hsl(144, 65%, 15%)"></rect><defs><linearGradient x1="0.5" y1="0" x2="0" y2="1" id="SvgjsLinearGradient1014"><stop stop-color="#288a4f" offset="0"></stop><stop stop-color="#060e14" offset="0.1"></stop></linearGradient><linearGradient x1="0.5" y1="0" x2="0" y2="1" id="SvgjsLinearGradient1015"><stop stop-color="#288a4f" offset="0"></stop><stop stop-color="#060e14" offset="0.22857142857142856"></stop></linearGradient><linearGradient x1="0.5" y1="0" x2="0" y2="1" id="SvgjsLinearGradient1016"><stop stop-color="#288a3c" offset="0"></stop><stop stop-color="#061114" offset="0.3571428571428571"></stop></linearGradient><linearGradient x1="0.5" y1="0" x2="0" y2="1" id="SvgjsLinearGradient1017"><stop stop-color="#c0f2d4" offset="0"></stop><stop stop-color="#429bd7" offset="0.48571428571428565"></stop></linearGradient><linearGradient x1="0.5" y1="0" x2="0" y2="1" id="SvgjsLinearGradient1018"><stop stop-color="#c0f2ca" offset="0"></stop><stop stop-color="#42b9d7" offset="0.6142857142857142"></stop></linearGradient><linearGradient x1="0.5" y1="0" x2="0" y2="1" id="SvgjsLinearGradient1019"><stop stop-color="#c0f2d4" offset="0"></stop><stop stop-color="#429bd7" offset="0.7428571428571429"></stop></linearGradient><linearGradient x1="0.5" y1="0" x2="0" y2="1" id="SvgjsLinearGradient1020"><stop stop-color="#c0f2de" offset="0"></stop><stop stop-color="#427dd7" offset="0.8714285714285713"></stop></linearGradient></defs><path d="M0,-575.3683716073738C35.45565723040952,-558.4855990820823,128.29257356928008,-493.2935893368722,212.7339433824571,-474.07173645562517C297.17531319563415,-454.84988357437817,420.4719138829117,-478.12587157998416,506.64821887906226,-460.0372543198917C592.8245238752129,-441.94863705979924,647.9480086913171,-396.3129242729632,729.7917733593606,-365.54003289507057C811.6355380274041,-334.76714151717795,918.7898870723047,-290.1588229250982,997.7108068873233,-275.399906052536C1076.631726702342,-260.64098917997376,1126.0784475131506,-291.8831495264544,1203.317292249472,-276.9865316596971C1280.5561369857935,-262.0899137929398,1380.1461769892715,-213.86899196406839,1461.143875305252,-186.02019885199195C1542.1415736212327,-158.1714057399155,1612.8274613628978,-135.00241086134145,1689.3034821453557,-109.89377298723844C1765.7795029278136,-84.78513511313541,1881.5505803575593,-47.789271837351244,1920,-35.3683716073738L 1920 1080 L 0 1080 Z" fill="url(&quot;#SvgjsLinearGradient1014&quot;)"></path><path d="M0,-368.0249804202453C68.02386907347442,-346.63739842559653,284.1208788065752,-275.6611836925958,408.1432144408465,-239.6994884523525C532.1655500751178,-203.73779321210924,620.7406667257097,-184.13468369934208,744.1340138056278,-152.25480897878558C867.5273608855458,-120.37493425822908,1017.0860378358772,-91.34354233561402,1148.5032969203548,-48.42024012901351C1279.9205560048326,-5.496937922413004,1404.0547844658863,66.17150859507035,1532.6375683124938,105.28500426081743C1661.2203521591014,144.3984999265645,1855.439594718749,172.76477893136038,1920,186.26073386546898L 1920 1080 L 0 1080 Z" fill="url(&quot;#SvgjsLinearGradient1015&quot;)"></path><path d="M0,-327.9693402582057C43.115446296559924,-314.74099402009824,174.58923437115033,-278.3014489991272,258.69267777935954,-248.5992628295611C342.79612118756876,-218.89707665999495,427.1782909573327,-177.62511797556945,504.6206604492554,-149.75622324080888C582.0630299411781,-121.88732850604829,651.3417231930052,-92.10458885118068,723.3468947308959,-81.38589442099762C795.3520662687865,-70.66719999081455,863.540171899411,-104.81900505245969,936.651689676599,-85.4440566597105C1009.7632074537869,-66.06910826696131,1076.2580631640767,3.71746636216848,1162.0160013940233,34.86379593549752C1247.77393962397,66.01012550882656,1357.715820292783,85.9172782046564,1451.199319056279,101.43392078026375C1544.6828178197748,116.9505633558711,1644.7835471510446,104.76895680031508,1722.9169939749981,127.9636513891416C1801.0504407989517,151.15834597796814,1887.1528323291664,221.82901549254268,1920,240.6020883132229L 1920 1080 L 0 1080 Z" fill="url(&quot;#SvgjsLinearGradient1016&quot;)"></path><path d="M0,-158.09120199713277C81.30046890215026,-131.74538585152294,325.0650265485458,-53.56887806480849,487.8028134129015,-0.016305123473856042C650.5406002772572,53.536267817860775,812.7893805198164,115.19571005043534,976.4267211861344,163.22423565087504C1140.0640618524524,211.25276125131475,1312.364644275165,244.56456427764184,1469.6268574108092,288.15484847916434C1626.8890705464535,331.7451326806869,1844.9378095684683,401.9974254632025,1920,424.7659408600101L 1920 1080 L 0 1080 Z" fill="url(&quot;#SvgjsLinearGradient1017&quot;)"></path><path d="M0,-13.537702627674022C51.2551974878719,-3.12842985691781,206.74696096214154,18.49081707739602,307.5311849272314,48.91793399686325C408.3154088923212,79.34505091633048,495.1891405623108,124.48368492832694,604.705343790539,169.02499888912934C714.2215470187673,213.56631284993173,842.987457907143,280.0835945490003,964.6284042966007,316.16581776167766C1086.2693506860585,352.24804097435504,1231.6076601553261,361.43826640902165,1334.5510221272853,385.51833816519354C1437.4943840992444,409.59840992136543,1484.7137464829036,427.631778907044,1582.288576128356,460.64624829870894C1679.8634057738084,493.6607176903739,1863.7147626880594,563.1120034791041,1920,583.6051545151832L 1920 1080 L 0 1080 Z" fill="url(&quot;#SvgjsLinearGradient1018&quot;)"></path><path d="M0,69.9545112648722C35.38262464432097,88.55167012255177,130.25492855763363,157.69803386782613,212.29574786592582,181.53746441094964C294.336567174218,205.37689495407315,403.46333781682927,195.17834439881017,492.2449158497531,212.99109452361324C581.026493882677,230.80384464841632,668.7718506209247,261.6563130382374,744.9852160634689,288.41396515976817C821.198581506013,315.17161728129895,872.5702747753611,344.3898853221805,949.5251085050181,373.53700725279776C1026.4799422346753,402.68412918341505,1126.436752441916,433.09172401667604,1206.7142184414113,463.29669674347184C1286.9916844409065,493.50166947026764,1357.3584891788014,535.1176394583747,1431.1899045019895,554.7668436135726C1505.0213198251777,574.4160477687706,1568.234361130872,560.0892151613475,1649.7027103805403,581.1919216746594C1731.1710596302087,602.2946281879713,1874.95045173009,664.6845558569796,1920,681.3830826934436L 1920 1080 L 0 1080 Z" fill="url(&quot;#SvgjsLinearGradient1019&quot;)"></path><path d="M0,189.5847657437675C58.05480893565451,206.8410405667212,248.21368922848995,263.524326146883,348.3288536139271,293.1224146814898C448.44401799936423,322.7205032160965,502.8658330095484,326.0890131136109,600.6909863126227,367.1732969514079C698.516139615697,408.2575807892049,813.7802186482995,495.15336202573405,935.279773432373,539.6281177082718C1056.7793282164464,584.1028733908096,1210.8373028704734,606.0037872966653,1329.6883150170634,634.0218310466346C1448.5393271636533,662.0398747966038,1550.0005654814227,677.5235101395177,1648.385846311912,707.7363802080876C1746.7711271424014,737.9492502766574,1874.7309743853186,797.371939583059,1920,815.2990514580533L 1920 1080 L 0 1080 Z" fill="url(&quot;#SvgjsLinearGradient1020&quot;)"></path></svg>