<svg class="canvas" viewBox="0 0 1920 1080" preserveAspectRatio="xMaxYMid slice" xmlns="http://www.w3.org/2000/svg" version="1.1" xmlns:xlink="http://www.w3.org/1999/xlink" xmlns:svgjs="http://svgjs.dev/svgjs"><rect width="1920" height="1080" fill="hsl(112, 65%, 15%)"></rect><defs><linearGradient x1="0.5" y1="0" x2="0" y2="1" id="SvgjsLinearGradient1028"><stop stop-color="#288a2f" offset="0"></stop><stop stop-color="#061314" offset="0.1"></stop></linearGradient><linearGradient x1="0.5" y1="0" x2="0" y2="1" id="SvgjsLinearGradient1029"><stop stop-color="#288a42" offset="0"></stop><stop stop-color="#061014" offset="0.22857142857142856"></stop></linearGradient><linearGradient x1="0.5" y1="0" x2="0" y2="1" id="SvgjsLinearGradient1030"><stop stop-color="#5d8a28" offset="0"></stop><stop stop-color="#06140c" offset="0.3571428571428571"></stop></linearGradient><linearGradient x1="0.5" y1="0" x2="0" y2="1" id="SvgjsLinearGradient1031"><stop stop-color="#c7f2c0" offset="0"></stop><stop stop-color="#42d7c3" offset="0.48571428571428565"></stop></linearGradient><linearGradient x1="0.5" y1="0" x2="0" y2="1" id="SvgjsLinearGradient1032"><stop stop-color="#c7f2c0" offset="0"></stop><stop stop-color="#42d7c3" offset="0.6142857142857142"></stop></linearGradient><linearGradient x1="0.5" y1="0" x2="0" y2="1" id="SvgjsLinearGradient1033"><stop stop-color="#c0f2c3" offset="0"></stop><stop stop-color="#42cdd7" offset="0.7428571428571429"></stop></linearGradient><linearGradient x1="0.5" y1="0" x2="0" y2="1" id="SvgjsLinearGradient1034"><stop stop-color="#c7f2c0" offset="0"></stop><stop stop-color="#42d7c3" offset="0.8714285714285713"></stop></linearGradient></defs><path d="M0,-561.8482777014633C41.9682554688211,-547.2598842762019,157.6199576719825,-496.37985852336,251.8095328129266,-474.31791714989504C345.9991079538707,-452.2559757764301,469.40510586963387,-456.5175349106819,565.1374508456645,-429.47662946067356C660.8697958216951,-402.43572401066524,732.2015039085028,-344.05525744968133,826.2036026691102,-312.07248444984515C920.2057014297176,-280.08971145000896,1042.9611520598924,-254.6297288541438,1129.150043409309,-237.57999146165636C1215.3389347587258,-220.53025406916893,1252.158891712057,-231.267102449805,1343.3369507656105,-209.7740600949206C1434.5150098191639,-188.2810177400362,1580.107889524898,-139.94270106459277,1676.2183977306295,-108.62173733234987C1772.328905936361,-77.30077360010698,1879.3697329551048,-36.310520973277704,1920,-21.84827770146327L 1920 1080 L 0 1080 Z" fill="url(&quot;#SvgjsLinearGradient1028&quot;)"></path><path d="M0,-461.0924905759751C52.8566714735391,-450.5637137754618,218.39288727637148,-436.70226910167844,317.1400288412346,-397.9198297728952C415.8871704060977,-359.13739044411193,492.0552425696117,-257.15402483343246,592.4828493891788,-228.39785460327545C692.9104562087459,-199.64168437311844,811.4553103082344,-250.55788588641667,919.7056697586371,-225.38280839195303C1027.9560292090398,-200.2077308974894,1131.027463392173,-110.00677946476227,1241.9850060915953,-77.34738963649365C1352.9425487910175,-44.68799980822501,1472.4484269704367,-57.84990498004669,1585.4509259551708,-29.426469422341214C1698.4534249399048,-1.0030338646357357,1864.2418209925286,72.75660818772583,1920,93.19322370973924L 1920 1080 L 0 1080 Z" fill="url(&quot;#SvgjsLinearGradient1029&quot;)"></path><path d="M0,-331.67020667266155C32.38567649303664,-319.73706804319926,121.92620209626317,-284.1695207550767,194.31405895821985,-260.0713748958878C266.7019158201765,-235.9732290366989,348.67751290411945,-211.90701053306273,434.3271411717401,-187.0813315175282C519.9767694393607,-162.2556525019937,628.8630691470754,-137.16128823227973,708.2118285639438,-111.11730080268066C787.5605879808121,-85.07331337308159,823.0015453530294,-44.64858962179678,910.4196976729502,-30.817406939933818C997.8378499928709,-16.986224258070855,1146.310271240983,-50.92242899966857,1232.7207424834683,-28.130204711502905C1319.1312137259536,-5.337980423337246,1355.4306053399157,72.41936880756415,1428.882525127862,105.93593878906015C1502.3344449158083,139.45250877055614,1591.5793487324559,151.14166799252192,1673.4322612111455,172.96921517747307C1755.2851736898351,194.79676236242423,1878.9053768685242,226.24588744521807,1920,236.90122189876706L 1920 1080 L 0 1080 Z" fill="url(&quot;#SvgjsLinearGradient1030&quot;)"></path><path d="M0,-202.05992210362382C54.621781293328745,-190.05583440991037,217.2629416626226,-167.38021898769662,327.73068775997245,-130.03539594134313C438.1984338573223,-92.69057289498963,553.355421109539,-19.1490754805523,662.8064765840992,22.009016174497113C772.2575320586594,63.167107829546524,882.3195167744095,88.02182060962816,984.4370206073338,116.91315398895333C1086.554524440258,145.80448736827847,1177.6666843604721,164.00580420881283,1275.5114995816448,195.35701645044804C1373.3563148028175,226.70822869208325,1464.0911618646446,274.11372672158603,1571.5059119343705,305.02042743876456C1678.9206620040964,335.9271281559431,1861.9176519890618,368.16775520106,1920,380.79722075351907L 1920 1080 L 0 1080 Z" fill="url(&quot;#SvgjsLinearGradient1031&quot;)"></path><path d="M0,-64.86105658943549C30.725049391610302,-51.75754021102939,94.5397952788317,-2.441537452767033,184.35029634966182,13.760041681001134C274.1607974204919,29.9616208147693,451.97651793038693,18.130772735758114,538.8630064249807,32.34841821317351C625.7494949195744,46.566063690588905,635.4334667671085,72.16455629513149,705.6692273172242,99.06591454549353C775.90498786734,125.96727279585556,875.8801083002527,158.96995176051405,960.277569725675,193.7565677153457C1044.6750311510973,228.54318367017737,1128.8846493375922,277.9578761203671,1212.0539958697584,307.78561027448353C1295.2233424019246,337.6133444286,1387.261882186803,353.4650520733289,1459.2936489186727,372.72297264004436C1531.3254156505425,391.98089320675984,1567.460204414089,396.73999568921363,1644.244596260977,423.33313367477655C1721.028988107865,449.92627166033947,1874.0407660434962,514.1236894069808,1920,532.2818005534217L 1920 1080 L 0 1080 Z" fill="url(&quot;#SvgjsLinearGradient1032&quot;)"></path><path d="M0,99.07536501887776C49.19797253350322,106.91406321196038,205.6128502592976,112.68937626670997,295.1878352010193,146.10755417737346C384.762820142741,179.52573208803693,454.321588216863,267.27455327573904,537.4499096503301,299.5844324828587C620.5782310837973,331.89431168997834,705.9713477395017,310.8488036066259,793.957763801822,339.9668294200913C881.9441798641424,369.0848552335567,972.3401826647704,438.1497674215053,1065.3684060242524,474.2925873636513C1158.3966293837345,510.4354073057973,1261.9951714424917,527.1578434870196,1352.1271039587143,556.8237490729673C1442.259036474937,586.489654658915,1511.51451844804,626.6746563169241,1606.1600011215876,652.2880208793378C1700.8054837951352,677.9013854417514,1867.6933335202646,700.801283852764,1920,710.5039364474492L 1920 1080 L 0 1080 Z" fill="url(&quot;#SvgjsLinearGradient1033&quot;)"></path><path d="M0,235.71569906237653C75.14335073023598,255.722629081786,286.97515095425786,299.8225275107989,450.8601043814159,355.75727917883336C614.745057808574,411.6920308468678,823.923665196298,514.6041078871459,983.3097205629481,571.3242090705833C1142.6957759295983,628.0443102540206,1251.0613900084747,647.7269236617774,1407.1764365813167,696.0778862794573C1563.2914831541586,744.4288488971372,1834.529406096886,833.8713016937947,1920,861.4299847766623L 1920 1080 L 0 1080 Z" fill="url(&quot;#SvgjsLinearGradient1034&quot;)"></path></svg>