<svg class="canvas" viewBox="0 0 1920 1080" preserveAspectRatio="xMaxYMid slice" xmlns="http://www.w3.org/2000/svg" version="1.1" xmlns:xlink="http://www.w3.org/1999/xlink" xmlns:svgjs="http://svgjs.dev/svgjs"><rect width="1920" height="1080" fill="hsl(243, 65%, 15%)"></rect><defs><linearGradient x1="0.5" y1="0" x2="0" y2="1" id="SvgjsLinearGradient1035"><stop stop-color="#54288a" offset="0"></stop><stop stop-color="#14060d" offset="0.1"></stop></linearGradient><linearGradient x1="0.5" y1="0" x2="0" y2="1" id="SvgjsLinearGradient1036"><stop stop-color="#68288a" offset="0"></stop><stop stop-color="#14060b" offset="0.22857142857142856"></stop></linearGradient><linearGradient x1="0.5" y1="0" x2="0" y2="1" id="SvgjsLinearGradient1037"><stop stop-color="#2d288a" offset="0"></stop><stop stop-color="#140613" offset="0.3571428571428571"></stop></linearGradient><linearGradient x1="0.5" y1="0" x2="0" y2="1" id="SvgjsLinearGradient1038"><stop stop-color="#ccc0f2" offset="0"></stop><stop stop-color="#d742b2" offset="0.48571428571428565"></stop></linearGradient><linearGradient x1="0.5" y1="0" x2="0" y2="1" id="SvgjsLinearGradient1039"><stop stop-color="#e0c0f2" offset="0"></stop><stop stop-color="#d74276" offset="0.6142857142857142"></stop></linearGradient><linearGradient x1="0.5" y1="0" x2="0" y2="1" id="SvgjsLinearGradient1040"><stop stop-color="#c2c0f2" offset="0"></stop><stop stop-color="#d742cf" offset="0.7428571428571429"></stop></linearGradient><linearGradient x1="0.5" y1="0" x2="0" y2="1" id="SvgjsLinearGradient1041"><stop stop-color="#c0c7f2" offset="0"></stop><stop stop-color="#c042d7" offset="0.8714285714285713"></stop></linearGradient></defs><path d="M0,-578.4242790318461C63.40236310532023,-568.0069461203924,260.68803583537954,-549.7759646299252,380.41417863192135,-515.9202815631238C500.14032142846315,-482.06459849632245,596.9013829605061,-415.2021996710206,718.3568567792507,-375.290180631038C839.8123305979954,-335.37816159105546,976.217423629363,-316.32021766333406,1109.147021544389,-276.44816732322846C1242.0766194594148,-236.57611698312286,1380.7922811934714,-175.7285266389682,1515.9344442694064,-136.05787859040447C1651.0766073453415,-96.38723054184075,1852.6557407115677,-54.696545624939205,1920,-38.424279031846154L 1920 1080 L 0 1080 Z" fill="url(&quot;#SvgjsLinearGradient1035&quot;)"></path><path d="M0,-397.0831467040338C88.64928696578691,-381.41374616280353,372.1466012105765,-346.37606091831947,531.8957217947215,-303.0667434566521C691.6448423788664,-259.7574259949847,809.8651780140065,-196.6501730115075,958.4947235048701,-137.2272419340295C1107.1242689957337,-77.80431085655152,1263.4221153240478,4.399208088930806,1423.6729947399028,53.47084300821581C1583.9238741557579,102.54247792750081,1837.2788324566504,139.9139468194364,1920,157.2025675816805L 1920 1080 L 0 1080 Z" fill="url(&quot;#SvgjsLinearGradient1036&quot;)"></path><path d="M0,-313.20289685900684C43.462538835684164,-295.5610641344752,169.6476270618263,-235.40646266838667,260.77523301410497,-207.351900511817C351.9028389663836,-179.29733835524735,459.0124493447973,-171.58819915139708,546.7656357136719,-144.87552391958886C634.5188220825466,-118.16284868778064,701.8556537292461,-74.74543832120233,787.294351227353,-47.07584912096765C872.7330487254599,-19.406259920732982,961.89640329674,1.0324086000776553,1059.3978207023135,21.142011281819173C1156.8992381078872,41.251613963560686,1274.986452227935,47.400431430476786,1372.3028556607944,73.58176696948144C1469.619259093654,99.76310250848609,1552.0133839096031,147.9322303920237,1643.2962412994707,178.2300245158471C1734.5790986893383,208.5278186396705,1873.8827068832452,242.512113846326,1920,255.36853171242177L 1920 1080 L 0 1080 Z" fill="url(&quot;#SvgjsLinearGradient1037&quot;)"></path><path d="M0,-113.82060869476959C62.81266929525139,-97.22351121974218,249.2135556893317,-47.39490798186323,376.8760157715083,-14.238023844605145C504.53847585368493,18.918860292652937,639.5105003901515,46.43005177492628,765.9747604930598,85.1206961287789C892.439020595968,123.81134048263152,1003.5583014583958,179.6047074223258,1135.6615763889579,217.9058422785106C1267.76485131952,256.2069771346954,1427.8713394745917,273.0723899519106,1558.594410076432,314.92750526588776C1689.3174806782724,356.7826205798649,1859.7657350127388,443.35169601295905,1920,469.0365341623733L 1920 1080 L 0 1080 Z" fill="url(&quot;#SvgjsLinearGradient1038&quot;)"></path><path d="M0,-49.57166590352307C83.22980820772365,-22.97403676155253,339.8672373483141,57.68952324645712,499.3788492463419,110.01410894830016C658.8904611443696,162.3386946501432,801.0503453197704,221.72867678597368,957.0696713881664,264.3758483075352C1113.0889974565623,307.0230198290967,1275.0064175547454,318.6979142557027,1435.4948056567177,365.8971380776692C1595.98319375869,413.09636189963567,1839.2491342761195,517.2921823790567,1920,547.5711912393342L 1920 1080 L 0 1080 Z" fill="url(&quot;#SvgjsLinearGradient1039&quot;)"></path><path d="M0,54.589843010324124C80.47376520235544,82.10372076985323,323.6050589933351,172.44344652625233,482.8425912141326,219.67310956749873C642.0801234349301,266.9027726087451,793.1003923358368,289.69416635364803,955.4251933247853,337.9678212578024C1117.7499943137336,386.2414761619568,1296.028929368621,454.6399401289097,1456.7913971478235,509.31503899242523C1617.553864927026,563.9901378559407,1842.798566191304,639.9011851978172,1920,666.0184144388955L 1920 1080 L 0 1080 Z" fill="url(&quot;#SvgjsLinearGradient1040&quot;)"></path><path d="M0,198.17605329749648C54.36513971542266,217.5891695647499,222.1212391498549,284.3176687131508,326.19083829253594,314.654750901017C430.260437435217,344.9918330888832,518.0039167826629,351.13672910693197,624.4175948560862,380.1985464246936C730.8312729295095,409.2603637424552,850.815271093561,452.37932305836125,964.6729067330757,489.0256548075867C1078.5305423725904,525.6719865568122,1200.85083223867,563.8683680396679,1307.5634086931746,600.0765369200465C1414.2759851476792,636.2847058004251,1502.8756002422988,668.9723677412358,1604.948365460103,706.2746680898583C1707.0211306779074,743.5769684384809,1867.4913942433504,804.2877271914615,1920,823.8903390117822L 1920 1080 L 0 1080 Z" fill="url(&quot;#SvgjsLinearGradient1041&quot;)"></path></svg>