<svg class="canvas" viewBox="0 0 1920 1080" preserveAspectRatio="xMaxYMid slice" xmlns="http://www.w3.org/2000/svg" version="1.1" xmlns:xlink="http://www.w3.org/1999/xlink" xmlns:svgjs="http://svgjs.dev/svgjs"><rect width="1920" height="1080" fill="hsl(59, 65%, 15%)"></rect><defs><linearGradient x1="0.5" y1="0" x2="0" y2="1" id="SvgjsLinearGradient1091"><stop stop-color="#8a8928" offset="0"></stop><stop stop-color="#061406" offset="0.1"></stop></linearGradient><linearGradient x1="0.5" y1="0" x2="0" y2="1" id="SvgjsLinearGradient1092"><stop stop-color="#8a8928" offset="0"></stop><stop stop-color="#061406" offset="0.22857142857142856"></stop></linearGradient><linearGradient x1="0.5" y1="0" x2="0" y2="1" id="SvgjsLinearGradient1093"><stop stop-color="#3d8a28" offset="0"></stop><stop stop-color="#061411" offset="0.3571428571428571"></stop></linearGradient><linearGradient x1="0.5" y1="0" x2="0" y2="1" id="SvgjsLinearGradient1094"><stop stop-color="#f2f1c0" offset="0"></stop><stop stop-color="#44d742" offset="0.48571428571428565"></stop></linearGradient><linearGradient x1="0.5" y1="0" x2="0" y2="1" id="SvgjsLinearGradient1095"><stop stop-color="#dff2c0" offset="0"></stop><stop stop-color="#42d77b" offset="0.6142857142857142"></stop></linearGradient><linearGradient x1="0.5" y1="0" x2="0" y2="1" id="SvgjsLinearGradient1096"><stop stop-color="#f2f1c0" offset="0"></stop><stop stop-color="#44d742" offset="0.7428571428571429"></stop></linearGradient><linearGradient x1="0.5" y1="0" x2="0" y2="1" id="SvgjsLinearGradient1097"><stop stop-color="#dff2c0" offset="0"></stop><stop stop-color="#42d77b" offset="0.8714285714285713"></stop></linearGradient></defs><path d="M0,-587.0025413553666C68.08609828836907,-570.3568041611668,280.2224805823739,-529.8128968588317,408.51658973021443,-487.1281181901681C536.810698878055,-444.4433395215045,649.6287022160433,-363.4530259165573,769.7646548870432,-330.8938693433853C889.9006075580431,-298.3347127702133,1001.0319651521861,-316.26215822088125,1129.3323057562143,-291.7731787511359C1257.6326463602425,-267.28419928139056,1407.788749470581,-224.7550987575416,1539.566698511212,-183.9599925249134C1671.344647551843,-143.1648862922852,1856.5944497518688,-69.82878321695773,1920,-47.00254135536661L 1920 1080 L 0 1080 Z" fill="url(&quot;#SvgjsLinearGradient1091&quot;)"></path><path d="M0,-368.4290395948708C43.41845291340045,-351.99549958665267,175.85786907519008,-289.5929424822694,260.5107174804027,-269.8277995455621C345.16356588561536,-250.06265660885475,406.9907410732319,-272.04626097775116,507.91709043127577,-249.83818197462693C608.8434397893196,-227.6301029715027,761.1592306294718,-164.56741179185326,866.0688136286658,-136.5793255268167C970.9783966278598,-108.5912392617801,1056.6189754215654,-116.51650158703157,1137.3745884264395,-81.90966438440742C1218.1302014313135,-47.30282718178327,1266.9029791160146,41.112482922705524,1350.6024916579104,71.0616976889282C1434.302004199806,101.01091245515089,1544.6720789541318,78.65312804594275,1639.5716636778134,97.78562421292864C1734.471248401495,116.91812037991453,1873.2619439463022,171.17816627785768,1920,185.8566746908435L 1920 1080 L 0 1080 Z" fill="url(&quot;#SvgjsLinearGradient1092&quot;)"></path><path d="M0,-292.3031022739015C61.131070392337904,-275.2790954557847,268.0695908736848,-229.03778558551994,366.7864223540274,-190.15906136520064C465.50325383437007,-151.28033714488134,496.5700808744712,-91.33694019653169,592.3009888820558,-59.03075695198572C688.0318968896403,-26.724573707439752,822.2361242320922,-14.726233707877327,941.1718703995347,3.6780381020751776C1060.1076165669772,22.082309912027682,1188.0514649223758,13.542220388162292,1305.9154658867112,51.394873907729306C1423.7794668510467,89.24752742729632,1546.008453833333,193.3150504878443,1648.355876185548,230.79395921947727C1750.7032985377627,268.27286795111024,1874.725979364258,268.68926511785213,1920,276.2683262975271L 1920 1080 L 0 1080 Z" fill="url(&quot;#SvgjsLinearGradient1093&quot;)"></path><path d="M0,-129.10773711286055C39.02335004295858,-119.22811665647284,136.1508913471052,-103.02421851069326,234.1401002577515,-69.83001437453424C332.1293091683978,-36.63581023837523,489.47224538452735,43.574112912028184,587.9352534638778,70.05748770409355C686.3982615432282,96.54086249615891,740.1523618600364,76.07381409963698,824.918148733854,89.07023437785794C909.6839356076715,102.06665465607891,1011.0704682225418,123.09200539705874,1096.529974706783,148.03600937341935C1181.989481191024,172.98001334977997,1239.8572620979098,208.2787623804138,1337.6751876393007,238.73425823602162C1435.4931131806916,269.1897540916294,1586.3833925616777,294.9331265890227,1683.4375279551277,330.7689845070662C1780.4916633485777,366.60484242510967,1880.5729213258546,433.252668871413,1920,453.74940574428234L 1920 1080 L 0 1080 Z" fill="url(&quot;#SvgjsLinearGradient1094&quot;)"></path><path d="M0,-16.451861588411923C43.92309148288805,-3.6073427330475933,171.24451412941426,31.97730841796753,263.53854889732827,60.61525154377406C355.8325836652423,89.25319466958058,463.4039828947707,127.1841010537604,553.7642086074842,155.37579716642722C644.1244343201977,183.56749327909404,709.4579869937613,199.87588936413155,805.6999031736091,229.76542821977495C901.9418193534568,259.6549670754183,1041.015898056561,305.01773874898583,1131.2157056865703,334.7130303002875C1221.4155133165798,364.4083218515892,1265.6284805749099,383.46899073158704,1346.8987489536653,407.9371775275853C1428.1690173324207,432.4053643235835,1523.3204407847138,452.7298480718004,1618.8373159591029,481.52215107627705C1714.354191133492,510.3144540807537,1869.806219326517,564.1628548080839,1920,580.6909955544453L 1920 1080 L 0 1080 Z" fill="url(&quot;#SvgjsLinearGradient1095&quot;)"></path><path d="M0,53.578542884751656C58.70988671745041,75.18756866366309,225.91003867468498,147.0841362790917,352.25932030470244,183.23269755822028C478.6086019347199,219.38125883734887,627.4134377258641,225.78105956208736,758.0956897801047,270.4699105595231C888.7779418343454,315.15876155695884,1006.9169665385635,408.1159544204671,1136.3528326301464,451.3658035428347C1265.7886987217294,494.61565266520233,1404.103025101293,494.3621201653139,1534.7108863296019,529.9690052937286C1665.3187475579107,565.5758904221434,1855.7851477216004,642.5007628100574,1920,665.0071143133231L 1920 1080 L 0 1080 Z" fill="url(&quot;#SvgjsLinearGradient1096&quot;)"></path><path d="M0,270.2327664228822C62.057007418410876,288.0005531718102,249.8627973555988,330.1717387075483,372.34204451046526,376.8394869164504C494.8212916653317,423.50723512535257,602.1797233108093,508.9258614530969,734.8754829291989,550.239255676295C867.5712425475886,591.5526498994931,1032.1974819780835,590.3154306692664,1168.5166022208032,624.719852255639C1304.8357224635229,659.1242738420116,1427.5429714223174,711.4612518809424,1552.7902043855167,756.6657851945306C1678.0374373487161,801.8703185081188,1858.7983673975862,872.7335076467284,1920,895.9470521371679L 1920 1080 L 0 1080 Z" fill="url(&quot;#SvgjsLinearGradient1097&quot;)"></path></svg>