<svg class="canvas" viewBox="0 0 1920 1080" preserveAspectRatio="xMaxYMid slice" xmlns="http://www.w3.org/2000/svg" version="1.1" xmlns:xlink="http://www.w3.org/1999/xlink" xmlns:svgjs="http://svgjs.dev/svgjs"><rect width="1920" height="1080" fill="hsl(320, 65%, 15%)"></rect><defs><linearGradient x1="0.5" y1="0" x2="0" y2="1" id="SvgjsLinearGradient1105"><stop stop-color="#5d288a" offset="0"></stop><stop stop-color="#14060c" offset="0.1"></stop></linearGradient><linearGradient x1="0.5" y1="0" x2="0" y2="1" id="SvgjsLinearGradient1106"><stop stop-color="#70288a" offset="0"></stop><stop stop-color="#140609" offset="0.22857142857142856"></stop></linearGradient><linearGradient x1="0.5" y1="0" x2="0" y2="1" id="SvgjsLinearGradient1107"><stop stop-color="#84288a" offset="0"></stop><stop stop-color="#140607" offset="0.3571428571428571"></stop></linearGradient><linearGradient x1="0.5" y1="0" x2="0" y2="1" id="SvgjsLinearGradient1108"><stop stop-color="#e4c0f2" offset="0"></stop><stop stop-color="#d74269" offset="0.48571428571428565"></stop></linearGradient><linearGradient x1="0.5" y1="0" x2="0" y2="1" id="SvgjsLinearGradient1109"><stop stop-color="#eec0f2" offset="0"></stop><stop stop-color="#d7424c" offset="0.6142857142857142"></stop></linearGradient><linearGradient x1="0.5" y1="0" x2="0" y2="1" id="SvgjsLinearGradient1110"><stop stop-color="#f2c0eb" offset="0"></stop><stop stop-color="#d75642" offset="0.7428571428571429"></stop></linearGradient><linearGradient x1="0.5" y1="0" x2="0" y2="1" id="SvgjsLinearGradient1111"><stop stop-color="#e4c0f2" offset="0"></stop><stop stop-color="#d74269" offset="0.8714285714285713"></stop></linearGradient></defs><path d="M0,-579.1266568131275C51.46581262103181,-560.6812161991202,213.93512416837098,-490.5157054174775,308.79487572619087,-468.4540131290836C403.65462728401076,-446.3923208406897,482.18732415753277,-472.44967914551864,569.1585093469192,-446.75650308276425C656.1296945363057,-421.06332702000987,742.0413904931364,-349.176287327491,830.6219868625096,-314.2949567525574C919.2025832318828,-279.4136261776238,1006.1535968679487,-262.35294084381223,1100.6420875631586,-237.46851963316263C1195.1305782583686,-212.58409842251302,1304.9514865257734,-187.40051522096397,1397.5529310337688,-164.98842948865982C1490.1543755417642,-142.57634375635567,1569.1762431167595,-123.97296735192643,1656.2507546111312,-102.9960052393377C1743.325266105503,-82.01904312674898,1876.0417924351887,-49.771548217495855,1920,-39.12665681312748L 1920 1080 L 0 1080 Z" fill="url(&quot;#SvgjsLinearGradient1105&quot;)"></path><path d="M0,-367.28564818497296C82.29073556752662,-342.05312585443573,334.7349480340585,-263.5542085448251,493.7444134051597,-215.89051420174977C652.753878776261,-168.22681985867442,798.64310962677,-123.57246832538281,954.0567922266073,-81.30348212652086C1109.4704748264446,-39.03449592765891,1265.2359743752847,-6.9938550464550815,1426.2265090041835,37.72340299142195C1587.2170436330823,82.44066102929898,1837.7044181673639,162.1206222491881,1920,187.00006610074132L 1920 1080 L 0 1080 Z" fill="url(&quot;#SvgjsLinearGradient1106&quot;)"></path><path d="M0,-253.6247129988865C57.91453099144534,-234.65047572415588,218.2215044486098,-181.1437692194546,347.48718594867205,-139.77928935050275C476.75286744873426,-98.41480948155088,644.1736464164245,-49.718847999797774,775.5940890003735,-5.437833785175265C907.0145315843225,38.843180429447244,1006.5133878948957,98.41393991445975,1136.0098414523661,125.90679593723229C1265.5062950098365,153.39965196000483,1421.9077839205902,128.01264907890834,1552.5728103451959,159.51930235145997C1683.2378367698016,191.0259556240116,1858.7621350575328,289.0421467023617,1920,314.9467155725421L 1920 1080 L 0 1080 Z" fill="url(&quot;#SvgjsLinearGradient1107&quot;)"></path><path d="M0,-190.5483145128294C61.01303865323795,-177.86643753063086,232.8469850577896,-152.51378511289482,366.0782319194277,-114.45705261963813C499.3094787810658,-76.40032012638144,668.0408516514703,-0.4738986220914114,799.3874811698287,37.79208044671079C930.734110688187,76.058059515513,1034.3341512238223,82.14181887682433,1154.1580090295777,115.13882179317505C1273.981866835333,148.13582470952576,1390.6902961759574,189.57909685295874,1518.3306280043612,235.77409794481514C1645.970959832765,281.96909903667154,1853.0551046673936,366.21970661106377,1920,392.3088283443135L 1920 1080 L 0 1080 Z" fill="url(&quot;#SvgjsLinearGradient1108&quot;)"></path><path d="M0,-68.34185392267165C41.62473638362781,-50.505052606252974,161.2326656428877,11.597336149643475,249.74841830176686,38.67895397584039C338.264170960646,65.7605718020373,431.91703850787235,67.35304814248188,531.094515953275,94.14785303450986C630.2719933986778,120.94265792653785,750.6233516646554,174.00837580735248,844.813282974183,199.4477833280083C939.0032142837107,224.88719084866415,1003.3227203208182,218.03036606165742,1096.2341038104407,246.7842981584449C1189.1454873000632,275.5382302552324,1309.6825348510085,336.13622236355184,1402.2815839119178,371.9713759087332C1494.880632972827,407.80652945391455,1565.5419954945496,435.65694821095775,1651.8283981758966,461.7952194295331C1738.1148008572436,487.9334906481085,1875.3047330293161,517.6333725884101,1920,528.8010032201855L 1920 1080 L 0 1080 Z" fill="url(&quot;#SvgjsLinearGradient1109&quot;)"></path><path d="M0,144.23255105122178C59.89672185963943,167.92091303258692,251.58691431069553,258.49880075067887,359.38033115783657,286.3627229394127C467.1737480049776,314.2266451281466,538.3616701395699,281.5934562954338,646.7605010828462,311.4160841836248C755.1593320261225,341.23871207181577,902.3275842660125,419.29836582683413,1009.7733168174941,465.2984902685586C1117.2190493689757,511.2986147102831,1186.8314649771278,554.7937283908198,1291.434896391736,587.4168308339717C1396.0383278063441,620.0399332771237,1532.6330547037653,632.9963896531667,1637.3939053051427,661.0371049274703C1742.15475590652,689.0778202017739,1872.8989842175238,739.8904528877395,1920,755.6611224797932L 1920 1080 L 0 1080 Z" fill="url(&quot;#SvgjsLinearGradient1110&quot;)"></path><path d="M0,193.15811389311233C47.786105621463655,209.72332644570622,180.26855027516035,249.62241631380022,286.7166337287819,292.54938920867573C393.1647171824035,335.47636210355125,518.539084616049,415.1496438412488,638.6885007217294,450.7199512623654C758.8379168274098,486.29025868348197,897.8186301011472,473.97586955192435,1007.6131303628642,505.97123373537505C1117.4076306245813,537.9665979188258,1191.7606370757815,603.0665220101466,1297.4555022920315,642.6921363630697C1403.1503675082815,682.3177507159928,1538.0249053757034,714.3615426455256,1641.7823216603647,743.7249198529137C1745.539737945026,773.0882970603018,1873.6303869433941,806.3478196483175,1920,818.8723996073982L 1920 1080 L 0 1080 Z" fill="url(&quot;#SvgjsLinearGradient1111&quot;)"></path></svg>