<svg class="canvas" viewBox="0 0 1920 1080" preserveAspectRatio="xMaxYMid slice" xmlns="http://www.w3.org/2000/svg" version="1.1" xmlns:xlink="http://www.w3.org/1999/xlink" xmlns:svgjs="http://svgjs.dev/svgjs"><rect width="1920" height="1080" fill="hsl(275, 65%, 15%)"></rect><defs><linearGradient x1="0.5" y1="0" x2="0" y2="1" id="SvgjsLinearGradient1070"><stop stop-color="#61288a" offset="0"></stop><stop stop-color="#14060c" offset="0.1"></stop></linearGradient><linearGradient x1="0.5" y1="0" x2="0" y2="1" id="SvgjsLinearGradient1071"><stop stop-color="#3a288a" offset="0"></stop><stop stop-color="#140611" offset="0.22857142857142856"></stop></linearGradient><linearGradient x1="0.5" y1="0" x2="0" y2="1" id="SvgjsLinearGradient1072"><stop stop-color="#4e288a" offset="0"></stop><stop stop-color="#14060e" offset="0.3571428571428571"></stop></linearGradient><linearGradient x1="0.5" y1="0" x2="0" y2="1" id="SvgjsLinearGradient1073"><stop stop-color="#e7c0f2" offset="0"></stop><stop stop-color="#d74262" offset="0.48571428571428565"></stop></linearGradient><linearGradient x1="0.5" y1="0" x2="0" y2="1" id="SvgjsLinearGradient1074"><stop stop-color="#e7c0f2" offset="0"></stop><stop stop-color="#d74262" offset="0.6142857142857142"></stop></linearGradient><linearGradient x1="0.5" y1="0" x2="0" y2="1" id="SvgjsLinearGradient1075"><stop stop-color="#ddc0f2" offset="0"></stop><stop stop-color="#d74280" offset="0.7428571428571429"></stop></linearGradient><linearGradient x1="0.5" y1="0" x2="0" y2="1" id="SvgjsLinearGradient1076"><stop stop-color="#d3c0f2" offset="0"></stop><stop stop-color="#d7429e" offset="0.8714285714285713"></stop></linearGradient></defs><path d="M0,-542.0333924343254C63.62030620143315,-526.5988252379055,255.4136499526603,-481.0159036821552,381.7218372085989,-449.4259892558061C508.0300244645375,-417.83607482945695,626.7258497886054,-396.8968753344091,757.8491235356316,-352.49390587623066C888.9723972826579,-308.0909364180522,1034.1171265298522,-218.0048916264651,1168.4614796907563,-183.00817250673535C1302.8058328516604,-148.0114533870056,1438.6588224495154,-172.67605450325385,1563.915242501056,-142.51359115785218C1689.1716625525964,-112.3511278124505,1860.6525404168426,-25.446758888246464,1920,-2.0333924343253216L 1920 1080 L 0 1080 Z" fill="url(&quot;#SvgjsLinearGradient1070&quot;)"></path><path d="M0,-386.20318038016075C81.49686607537161,-356.9305849346331,322.4421218111128,-263.14677259610005,488.98119645222965,-210.56760770699478C655.5202710933465,-157.98844281788948,846.996956753293,-113.09168208868466,999.234447846701,-70.72819104552892C1151.4719389401089,-28.36470000237317,1248.9452176537939,3.81155106009264,1402.4061430126771,43.61333855193971C1555.8670683715604,83.41512604378678,1833.7343571687795,147.33766801328457,1920,168.08253390555353L 1920 1080 L 0 1080 Z" fill="url(&quot;#SvgjsLinearGradient1071&quot;)"></path><path d="M0,-271.63004520431525C58.894447448679216,-251.97614741835955,224.51689591339684,-192.8203616555987,353.3666846920753,-153.70665848858096C482.2164734707537,-114.59295532156321,637.8675592647858,-76.36612005848747,773.0987326720708,-36.94782620220872C908.3299060793559,2.470467654070042,1033.8465884795912,47.17638741146249,1164.7537251357853,82.80310464909161C1295.6608617919794,118.42982188672073,1432.667173465199,141.12276410389566,1558.541552609235,176.81247722356596C1684.4159317532708,212.50219034323626,1859.7569254348725,276.91989900985544,1920,296.94138336711336L 1920 1080 L 0 1080 Z" fill="url(&quot;#SvgjsLinearGradient1072&quot;)"></path><path d="M0,-189.25595599393174C37.354756644130156,-180.2825134841054,137.2664395399206,-159.0969945623299,224.12853986478095,-135.41530093497377C310.9906401896413,-111.73360730761763,445.75493823935255,-70.88192931428705,521.172601949162,-47.16579422979493C596.5902656589714,-23.44965914530281,595.6677253091618,-25.09560795893284,676.6345221236375,6.881509571978974C757.6013189381131,38.858627102890786,922.010664675132,120.04724444465903,1006.9733828360161,144.69691095567595C1091.9361009969,169.34657746669285,1122.412574716403,134.56375568223325,1186.4108310889414,154.77950863808047C1250.4090874614799,174.9952615939277,1309.6737394173317,236.7788712616228,1390.9629210712474,265.99142869075934C1472.252102725163,295.20398611989583,1585.97307452431,308.7865601841577,1674.1459210124356,330.0548532128996C1762.318767500561,351.32314624164155,1879.0243201687392,383.01013125482586,1920,393.6011868632111L 1920 1080 L 0 1080 Z" fill="url(&quot;#SvgjsLinearGradient1073&quot;)"></path><path d="M0,-18.563809015711662C46.04955768932471,-4.482435111463447,180.07303757060566,38.969016216864105,276.29734613594826,65.92443440977763C372.52165470129086,92.87985260269116,491.7614421765979,109.74822580655189,577.3458513920555,143.16870014176953C662.930260607513,176.58917447698718,697.7834092887737,239.7881574723558,789.8038014286938,266.4472804210835C881.8241935686139,293.10640336981123,1037.6894147164187,283.9263292073837,1129.4682042315758,303.1234378341358C1221.2469937467329,322.32054646088795,1248.856799317129,350.70046430096716,1340.4765385196358,381.6299321815965C1432.0962777221428,412.5594000622258,1582.5993958665572,455.87539246032026,1679.1866394466178,488.7002451179118C1775.7738830266785,521.5250977755034,1879.8644399077696,563.5992476256066,1920,578.5790481271456L 1920 1080 L 0 1080 Z" fill="url(&quot;#SvgjsLinearGradient1074&quot;)"></path><path d="M0,93.46044545643619C58.78379708365902,117.13670918479221,229.93937122686418,197.07762924474582,352.7027825019541,235.5180278265723C475.46619377704405,273.9584264083988,603.8826495088249,287.3445096167272,736.5804676505397,324.102836947395C869.2782857922546,360.86116427806286,1018.2236658911961,411.53878033437326,1148.889691352243,456.0679918105793C1279.55571681329,500.5972032867854,1392.0582356421953,549.8079349588934,1520.5766204168215,591.2781058046314C1649.0950051914476,632.7482766503695,1853.429436736137,685.9538650382783,1920,704.8890168850077L 1920 1080 L 0 1080 Z" fill="url(&quot;#SvgjsLinearGradient1075&quot;)"></path><path d="M0,224.33732009893268C52.560104222502446,235.96785503242046,223.8033531805914,268.3853672243435,315.3606253350147,294.12052969985933C406.91789748943796,319.85569217537517,465.86891808975196,338.59953910397064,549.3436329265397,378.74829495202755C632.8183477633274,418.89705080008446,717.5924796657728,500.68660625152506,816.2089143557413,535.013064788201C914.8253490457098,569.3395233248768,1054.3452204425557,558.7071668778397,1141.0422410663512,584.7070461720828C1227.7392616901466,610.7069254663259,1251.9714178485692,658.0630673992583,1336.3910380985135,691.0123405536593C1420.8106583484578,723.9616137080603,1550.2918022491026,755.8961408885621,1647.559962566017,782.4026850984886C1744.8281228829314,808.9092293084152,1874.5933270943362,838.7767856940968,1920,850.0516058132184L 1920 1080 L 0 1080 Z" fill="url(&quot;#SvgjsLinearGradient1076&quot;)"></path></svg>